<svg width="321" height="181" viewBox="0 0 321 181" fill="none" xmlns="http://www.w3.org/2000/svg">
    <g clip-path="url(#clip0)">
        <path opacity="0.1" d="M317.597 167.931C316.352 171.108 314.818 174.156 313.017 177.034C312.172 178.407 311.245 179.724 310.242 180.977C310.233 180.99 310.223 181.002 310.212 181.012H0L0.0418695 180.977C0.321 180.752 1.9595 179.382 4.50796 177.034C6.33626 175.353 8.63071 173.166 11.2071 170.535C32.2786 149.118 72.7553 98.4227 39.0448 51.9821C7.70679 8.8097 41.4481 0.975378 63.7059 0.0609892C72.2576 -0.28521 80.7888 1.15602 88.7886 4.29833C99.0718 8.33665 117.866 14.5268 142.351 17.3652C143.155 17.4575 143.964 17.5498 144.785 17.6334C157.748 18.9974 170.799 19.2425 183.802 18.3661C184.184 18.343 184.569 18.3142 184.957 18.2853C197.82 17.3519 210.586 15.3113 223.12 12.1846C223.932 11.9798 224.733 11.7865 225.532 11.5933C267.298 1.60708 305.801 35.6414 296.174 74.1034C292.615 88.3298 293.52 103.494 305.385 115.762C324.813 135.786 322.46 155.507 317.597 167.931Z" fill="#6C63FF"/>
        <path d="M317.598 167.93C316.352 171.107 314.818 174.155 313.017 177.034C312.172 178.406 311.246 179.723 310.242 180.977H0.0419922C0.321123 180.752 1.95962 179.382 4.50808 177.034C6.33638 175.352 8.63084 173.166 11.2072 170.535L43.9018 163.554C44.3242 163.464 44.7544 163.419 45.1858 163.419L80.0408 163.367H80.0771L97.3413 163.344H97.3804L111.951 163.327H121.489H131.258L171.291 163.269H171.355H174.457H179.905H186.708H188.516L195.391 163.188H197.664L217.66 163.159H224.047H227.117L250.215 163.128H257.093L278.971 163.096L297.439 163.073C297.953 163.073 298.466 163.136 298.966 163.26L317.598 167.93Z" fill="#454B69"/>
        <path opacity="0.4" d="M4.50808 177.034H313.017C312.172 178.406 311.246 179.723 310.242 180.977H0.0419922C0.31554 180.738 1.95404 179.367 4.50808 177.034Z" fill="black"/>
        <path d="M204.664 87.3256L204.044 87.4496L176.031 93.011C167.894 94.6263 159.64 96.2503 151.375 95.6301C145.388 95.1801 139.794 93.3456 134.041 91.736C130.789 90.8245 127.342 90.4611 126.24 86.6997C124.718 81.5075 127.194 73.8203 127.778 68.559C128.336 63.3957 128.665 58.1026 127.671 52.9999C127.451 51.8533 127.16 50.7222 126.801 49.6135C125.804 46.5588 124.238 43.383 125.084 40.2822C125.751 37.8217 127.786 36.065 129.69 34.4381C133.419 31.2652 137.226 27.7086 138.705 22.952C139.431 20.6444 139.568 18.1609 140.35 15.8706C141.832 11.515 145.555 8.25834 149.698 6.53341C153.84 4.80847 158.395 4.44214 162.864 4.44214C166.81 4.44237 170.752 4.71314 174.663 5.25268C178.928 5.82959 183.232 6.77859 186.981 8.96505C190.73 11.1515 193.89 14.7341 194.763 19.1012C196 25.2769 192.566 31.8536 194.409 37.8505C195.335 40.8821 197.479 43.3311 198.967 46.106C200.18 48.4272 200.929 50.9769 201.169 53.6033C201.408 56.2297 201.134 58.8792 200.363 61.3939C198.582 67.0965 194.222 72.8656 196.455 78.3952C197.876 81.9114 201.504 83.7892 204.033 86.5756C204.258 86.8256 204.469 87.0756 204.664 87.3256Z" fill="#454B69"/>
        <path opacity="0.1" d="M204.044 86.5987V87.4496L176.031 93.0109C167.894 94.6263 159.64 96.2503 151.375 95.6301C145.388 95.1801 139.794 93.3456 134.041 91.736C130.789 90.8245 127.342 90.461 126.24 86.6996C124.718 81.5075 127.194 73.8203 127.778 68.559C128.336 63.3957 136.93 44.5454 135.937 39.4427L187.297 41.7504C187.643 44.5685 201.217 58.7141 200.371 61.4169C198.59 67.1196 194.23 72.8886 196.463 78.4182C197.887 81.9344 201.515 83.8123 204.044 86.5987Z" fill="black"/>
        <path d="M151.568 72.3262C151.872 74.1117 152.034 76.076 151.152 77.6337C149.977 79.722 147.414 80.3884 145.123 80.8614L137.167 82.5056C136.626 82.6181 136.051 82.745 135.646 83.1287C135.169 83.57 135.007 84.268 134.937 84.9257C134.616 87.9025 135.635 90.8361 136.565 93.6715C138.443 99.4146 140.02 105.279 142.396 110.82C144.771 116.361 148.031 121.651 152.684 125.355C157.337 129.059 163.495 131.032 169.192 129.584C174.155 128.323 178.225 124.703 181.733 120.864C184.628 117.691 187.336 114.229 188.74 110.113C189.708 107.286 190.024 104.275 190.328 101.292C190.799 96.7195 191.269 92.1466 191.74 87.5737C191.961 85.4276 192.106 83.0133 190.758 81.3662C190.166 80.6422 189.362 80.1605 188.541 79.7134C185.488 78.0375 182.272 76.6529 179.431 74.6338C176.589 72.6146 174.069 69.834 173.206 66.3841C172.69 64.313 172.782 62.0573 171.902 60.1276C170.92 57.9642 168.832 56.4989 166.599 55.8556C164.366 55.2124 162.01 55.2989 159.71 55.5672C157.41 55.8354 148.545 56.5219 147.593 59.2017C147.082 60.6439 149.201 63.739 149.703 65.1582C150.53 67.4853 151.154 69.8842 151.568 72.3262Z" fill="#EFB7B9"/>
        <path opacity="0.1" d="M151.568 72.3262C151.872 74.1117 152.034 76.076 151.152 77.6337C149.977 79.722 147.414 80.3884 145.123 80.8614L137.167 82.5056C136.626 82.6181 136.051 82.745 135.646 83.1287C135.169 83.57 135.007 84.268 134.937 84.9257C134.616 87.9025 135.635 90.8361 136.565 93.6715C138.443 99.4146 140.02 105.279 142.396 110.82C144.771 116.361 148.031 121.651 152.684 125.355C157.337 129.059 163.495 131.032 169.192 129.584C174.155 128.323 178.225 124.703 181.733 120.864C184.628 117.691 187.336 114.229 188.74 110.113C189.708 107.286 190.024 104.275 190.328 101.292C190.799 96.7195 191.269 92.1466 191.74 87.5737C191.961 85.4276 192.106 83.0133 190.758 81.3662C190.166 80.6422 189.362 80.1605 188.541 79.7134C185.488 78.0375 182.272 76.6529 179.431 74.6338C176.589 72.6146 174.069 69.834 173.206 66.3841C172.69 64.313 172.782 62.0573 171.902 60.1276C170.92 57.9642 168.832 56.4989 166.599 55.8556C164.366 55.2124 162.01 55.2989 159.71 55.5672C157.41 55.8354 148.545 56.5219 147.593 59.2017C147.082 60.6439 149.201 63.739 149.703 65.1582C150.53 67.4853 151.154 69.8842 151.568 72.3262Z" fill="black"/>
        <path d="M170.713 103.692L175.378 93.4869C177.563 88.7044 179.796 83.6796 179.565 78.398C179.52 77.3481 179.509 76.0356 180.402 75.5597C180.79 75.396 181.212 75.3403 181.627 75.3982C186.538 75.6576 191.383 76.6706 196.005 78.4038C196.901 78.7384 197.82 79.1249 198.448 79.8634C199.076 80.6018 199.33 81.5941 199.545 82.546C200.277 85.7644 200.811 89.0276 201.144 92.3158C201.982 100.456 201.566 108.668 201.144 116.834L199.905 141.765C199.911 142.119 199.842 142.469 199.701 142.792C199.394 143.369 198.702 143.562 198.079 143.672C195.682 144.096 193.231 144.009 190.802 143.914C173.72 143.245 156.547 142.218 139.576 144.358C139.653 141.764 139.613 139.168 139.456 136.57C138.784 125.352 135.97 114.408 133.207 103.539C131.596 97.1935 130.036 90.2707 132.629 84.2911C133.01 83.3468 133.558 82.4841 134.245 81.747C135.348 80.6307 136.852 80.0422 138.343 79.6211C140.914 78.8983 143.577 78.587 146.239 78.698L163.838 118.294C164.642 120.105 165.304 122.012 166.105 123.8C166.825 120.711 165.96 117.091 166.825 113.742C167.757 110.266 169.226 106.94 170.713 103.692Z" fill="white"/>
        <path d="M168.874 130.937C172.022 131.141 175.082 129.474 177.248 127.117C179.414 124.761 180.843 121.772 182.052 118.752C183.789 114.447 185.17 109.998 186.18 105.452C187.017 101.587 187.612 97.5858 187.034 93.6687C186.236 88.2602 183.274 83.345 182.769 77.8991C182.682 76.9472 182.738 75.8337 183.478 75.2597C183.936 74.9049 184.539 74.8559 185.108 74.8213C190.373 74.4982 196.156 74.5588 200.234 78.0115C201.476 79.0615 202.484 80.374 203.698 81.4556C206.59 84.0517 210.676 85.3728 212.533 88.8198C213.18 90.0197 213.49 91.3784 213.942 92.6706C215.009 95.7282 216.854 98.4166 218.688 101.062C216.909 108.815 214.866 116.575 213.088 124.328C212.047 128.877 210.997 133.443 209.362 137.799C208.29 140.654 206.942 143.568 207.271 146.625C207.402 147.828 207.79 148.979 208.128 150.139C209.312 154.209 209.867 158.446 209.772 162.695L130.125 162.897C133.941 157.243 135.06 150.309 134.672 143.429C134.485 140.132 133.765 136.815 132.16 133.962C129.631 129.491 125.182 126.578 120.796 124.083C117.726 122.352 114.43 132.09 111.111 130.974C111.647 127.057 111.892 111.936 111.669 107.993C111.596 106.701 111.485 105.374 111.87 104.139C112.132 103.294 112.615 102.539 112.942 101.716C114.251 98.4252 113.003 94.2167 115.119 91.4159C116.582 89.4688 119.147 88.915 121.232 87.715C123.373 86.4805 125.028 84.5421 126.893 82.8864C130.551 79.6759 135.022 77.6133 139.777 76.9414C141.165 79.2026 142.008 81.7742 142.236 84.4411C142.379 86.117 142.276 87.816 142.502 89.4832C142.812 91.7418 143.716 93.8619 144.612 95.9503C148.344 104.659 152.09 113.393 156.818 121.57C158.155 123.878 159.61 126.186 161.547 127.983C163.484 129.78 166.272 131.063 168.874 130.937Z" fill="#6C63FF"/>
        <path opacity="0.1" d="M168.874 130.937C172.022 131.141 175.082 129.474 177.248 127.117C179.414 124.761 180.843 121.772 182.052 118.752C183.789 114.447 185.17 109.998 186.18 105.452C187.017 101.587 187.612 97.5858 187.034 93.6687C186.236 88.2602 183.274 83.345 182.769 77.8991C182.682 76.9472 182.738 75.8337 183.478 75.2597C183.936 74.9049 184.539 74.8559 185.108 74.8213C190.373 74.4982 196.156 74.5588 200.234 78.0115C201.476 79.0615 202.484 80.374 203.698 81.4556C206.59 84.0517 210.676 85.3728 212.533 88.8198C213.18 90.0197 213.49 91.3784 213.942 92.6706C215.009 95.7282 216.854 98.4166 218.688 101.062C216.909 108.815 214.866 116.575 213.088 124.328C212.047 128.877 210.997 133.443 209.362 137.799C208.29 140.654 206.942 143.568 207.271 146.625C207.402 147.828 207.79 148.979 208.128 150.139C209.312 154.209 209.867 158.446 209.772 162.695L130.125 162.897C133.941 157.243 135.06 150.309 134.672 143.429C134.485 140.132 133.765 136.815 132.16 133.962C129.631 129.491 125.182 126.578 120.796 124.083C117.726 122.352 114.43 132.09 111.111 130.974C111.647 127.057 111.892 111.936 111.669 107.993C111.596 106.701 111.485 105.374 111.87 104.139C112.132 103.294 112.615 102.539 112.942 101.716C114.251 98.4252 113.003 94.2167 115.119 91.4159C116.582 89.4688 119.147 88.915 121.232 87.715C123.373 86.4805 125.028 84.5421 126.893 82.8864C130.551 79.6759 135.022 77.6133 139.777 76.9414C141.165 79.2026 142.008 81.7742 142.236 84.4411C142.379 86.117 142.276 87.816 142.502 89.4832C142.812 91.7418 143.716 93.8619 144.612 95.9503C148.344 104.659 152.09 113.393 156.818 121.57C158.155 123.878 159.61 126.186 161.547 127.983C163.484 129.78 166.272 131.063 168.874 130.937Z" fill="black"/>
        <path d="M164.662 71.6714C177.876 71.6714 188.589 60.6012 188.589 46.9454C188.589 33.2896 177.876 22.2194 164.662 22.2194C151.447 22.2194 140.735 33.2896 140.735 46.9454C140.735 60.6012 151.447 71.6714 164.662 71.6714Z" fill="#EFB7B9"/>
        <path d="M152.107 79.8951C152.763 73.4973 150.189 67.2379 147.275 61.5525C145.879 58.8353 144.383 56.1268 143.682 53.1413C142.982 50.1558 143.183 46.7752 144.975 44.3205C146.499 42.2321 148.916 41.1043 151.152 39.8783C157.463 36.4169 163.233 31.3287 166.007 24.5241C164.439 25.4068 164.846 28.0403 166.231 29.2028C167.615 30.3652 169.502 30.5902 171.205 31.144C177.413 33.1632 181.136 39.561 184.123 45.5378C184.611 46.5127 185.108 47.5425 185.103 48.6415C185.097 49.7405 184.611 50.7154 184.103 51.65C182.629 54.3615 180.826 56.9662 180.156 59.9978C179.389 63.4592 180.198 67.0994 181.251 70.4945C182.367 74.1059 183.849 77.7462 186.529 80.3365C189.209 82.9268 193.365 84.2132 196.661 82.5402C193.37 76.6933 189.962 70.1599 191.246 63.5313C191.866 60.3584 193.532 57.4738 194.241 54.3182C195.592 48.2982 193.342 42.1052 191.135 36.3592L184.536 19.2108C183.528 16.5888 182.381 13.7908 180.07 12.3053C178.507 11.3044 176.614 11.0448 174.783 10.8631C168.888 10.3208 162.781 10.4996 157.293 12.7668C147.294 16.8946 141.025 27.0711 136.051 36.9419C134.56 39.8985 133.089 43.0398 133.151 46.3743C133.184 48.203 133.678 49.9828 134.08 51.7654C135.716 59.0228 135.805 66.5427 135.889 73.9934C135.953 79.7105 135.666 85.0988 133.246 90.3053C136.562 90.9861 141.371 92.8235 144.654 91.4793C148.933 89.7313 151.568 84.3459 152.107 79.8951Z" fill="#454B69"/>
        <g opacity="0.1">
            <path opacity="0.1" d="M135.875 73.8723C135.886 73.0588 135.886 72.2377 135.875 71.4089C135.791 63.9582 135.702 56.4383 134.066 49.1809C133.701 47.7686 133.416 46.3354 133.212 44.8887C133.155 45.3855 133.13 45.8856 133.137 46.3858C133.17 48.2146 133.664 49.9943 134.066 51.7769C135.694 58.9911 135.794 66.4648 135.875 73.8723Z" fill="black"/>
            <path opacity="0.1" d="M194.241 54.3182C194.608 52.6328 194.73 50.9006 194.604 49.178C194.549 50.0348 194.428 50.8856 194.241 51.7222C193.532 54.8951 191.866 57.7537 191.246 60.9353C190.979 62.3386 190.904 63.7737 191.023 65.1986C191.067 64.639 191.142 64.0824 191.246 63.5314C191.866 60.3497 193.532 57.4797 194.241 54.3182Z" fill="black"/>
            <path opacity="0.1" d="M184.885 47.3175C185.021 46.9078 185.095 46.4786 185.103 46.0454C185.103 44.9464 184.611 43.9167 184.123 42.9417C181.136 36.965 177.424 30.5729 171.205 28.548C169.502 27.9942 167.618 27.7692 166.231 26.6067C165.874 26.289 165.581 25.9008 165.372 25.465C165.162 25.0291 165.038 24.5543 165.008 24.0684C161.982 29.8085 156.785 34.1988 151.152 37.2823C148.919 38.5082 146.499 39.6361 144.975 41.7244C143.543 43.6859 143.127 46.2387 143.375 48.7078C143.516 47.1232 144.069 45.6073 144.975 44.3205C146.499 42.2321 148.916 41.1043 151.152 39.8784C156.785 36.7948 161.982 32.4046 165.008 26.6644C165.038 27.1503 165.162 27.6251 165.372 28.061C165.581 28.4969 165.874 28.8851 166.231 29.2028C167.626 30.3566 169.502 30.5902 171.205 31.1441C177.412 33.1632 181.136 39.5611 184.123 45.5378C184.426 46.1074 184.681 46.7028 184.885 47.3175Z" fill="black"/>
            <path opacity="0.1" d="M186.529 77.7404C183.849 75.1443 182.373 71.5098 181.251 67.8984C180.577 65.8698 180.128 63.7691 179.911 61.6362C179.651 64.5986 180.363 67.6302 181.251 70.4945C182.367 74.1059 183.849 77.7461 186.529 80.3364C189.209 82.9267 193.365 84.2132 196.661 82.5402C196.265 81.8393 195.871 81.1268 195.481 80.4085C192.419 81.2999 188.902 80.0307 186.529 77.7404Z" fill="black"/>
            <path opacity="0.1" d="M152.107 77.2991C151.568 81.7499 148.933 87.1352 144.643 88.8948C141.665 90.1149 137.425 88.7131 134.189 87.9371C133.911 88.7468 133.592 89.5411 133.235 90.3168C136.551 90.9976 141.36 92.835 144.643 91.4908C148.933 89.7313 151.568 84.3459 152.107 79.8951C152.218 78.7816 152.238 77.6604 152.168 76.5433C152.152 76.7943 152.126 77.0481 152.107 77.2991Z" fill="black"/>
        </g>
        <path d="M185.929 148.818C181.616 148.111 177.239 146.746 172.963 147.664C170.484 148.195 168.218 149.469 166.158 151.01C167.291 151.947 168.614 152.784 169.334 154.088C169.782 154.99 170.117 155.946 170.334 156.935C170.786 158.665 171.241 160.431 171.311 162.231C171.38 164.03 171.032 165.905 169.993 167.356C175.431 167.91 180.701 166.526 186.004 165.173C186.611 165.063 187.188 164.822 187.698 164.466C188.536 163.785 188.782 162.574 188.787 161.469C188.787 159.496 188.251 157.572 187.707 155.68C187.059 153.41 186.579 151.073 185.929 148.818Z" fill="white"/>
        <path d="M215.048 100.165C217.189 100.453 218.849 102.239 220.072 104.073C223.503 109.179 224.982 115.369 226.629 121.348C228.676 128.785 231.083 136.104 233.85 143.305C234.446 144.968 235.17 146.579 236.016 148.122C236.705 149.314 237.543 150.459 237.847 151.812C238.584 155.083 235.974 158.158 233.253 159.981C231.802 160.991 230.218 161.78 228.549 162.323C226.925 162.825 225.23 163.015 223.547 163.205L208.053 164.936C200.921 165.738 193.725 166.54 186.59 165.767C186.141 164.152 187.023 163.009 186.959 161.328C186.914 160.125 186.401 159.006 185.943 157.898C185.099 155.925 184.541 153.834 184.287 151.693C184.207 150.906 184.179 150.098 183.888 149.366C183.598 148.633 182.976 147.975 182.214 147.923C186.401 147.494 189.58 146.677 193.767 146.245C195.322 146.083 196.938 145.901 198.264 145.047C199.908 143.989 200.829 142.079 201.56 140.227C203.372 135.641 204.538 130.587 203.587 125.73C202.805 121.746 200.625 118.037 200.636 113.973C200.636 111.553 201.434 109.207 202.378 106.992C203.377 104.65 204.681 102.256 206.875 101.067C209.069 99.879 212.572 99.8184 215.048 100.165Z" fill="#6C63FF"/>
        <path opacity="0.08" d="M215.048 100.165C217.189 100.453 218.849 102.239 220.072 104.073C223.503 109.179 224.982 115.369 226.629 121.348C228.676 128.785 231.083 136.104 233.85 143.305C234.446 144.968 235.17 146.579 236.016 148.122C236.705 149.314 237.543 150.459 237.847 151.812C238.584 155.083 235.974 158.158 233.253 159.981C231.802 160.991 230.218 161.78 228.549 162.323C226.925 162.825 225.23 163.015 223.547 163.205L208.053 164.936C200.921 165.738 193.725 166.54 186.59 165.767C186.141 164.152 187.023 163.009 186.959 161.328C186.914 160.125 186.401 159.006 185.943 157.898C185.099 155.925 184.541 153.834 184.287 151.693C184.207 150.906 184.179 150.098 183.888 149.366C183.598 148.633 182.976 147.975 182.214 147.923C186.401 147.494 189.58 146.677 193.767 146.245C195.322 146.083 196.938 145.901 198.264 145.047C199.908 143.989 200.829 142.079 201.56 140.227C203.372 135.641 204.538 130.587 203.587 125.73C202.805 121.746 200.625 118.037 200.636 113.973C200.636 111.553 201.434 109.207 202.378 106.992C203.377 104.65 204.681 102.256 206.875 101.067C209.069 99.879 212.572 99.8184 215.048 100.165Z" fill="black"/>
        <path d="M118.019 96.4176C119.032 93.9311 120.062 91.3639 120.09 88.6669C120.121 85.7506 118.974 82.9815 118.097 80.2124C117.013 76.8243 116.292 73.3238 115.945 69.7734C115.873 69.4332 115.923 69.0777 116.085 68.7724C116.316 68.4349 116.763 68.3657 117.157 68.2763C119.088 67.8205 120.548 66.2081 121.754 64.5841C123.625 62.0761 125.204 59.3498 126.46 56.4614C127.384 54.3355 128.634 51.7423 130.89 51.7221C129.982 56.1294 128.856 60.4859 127.518 64.7745C129.877 64.1515 132.118 63.2457 134.477 62.6227C134.938 62.472 135.422 62.4056 135.906 62.4265C137.318 62.5794 138.184 64.5553 137.363 65.7524C138.516 67.1485 140.433 67.5234 141.941 68.4811C143.448 69.4388 144.531 71.8098 143.191 73.0127C142.929 73.2463 142.597 73.4107 142.407 73.7107C141.759 74.7434 143.345 75.9289 143.213 77.1519C143.107 78.1529 141.865 78.6201 140.925 78.3548C139.984 78.0894 139.25 77.3625 138.412 76.8289C137.575 76.2952 136.481 75.9635 135.669 76.5173C135.451 79.2317 135.216 81.9979 134.08 84.4699C133.664 85.3728 133.131 86.2179 132.796 87.1554C132.476 88.1776 132.277 89.2363 132.205 90.3082L131.191 99.8819C126.357 100.883 122.022 99.3857 118.019 96.4176Z" fill="#EFB7B9"/>
        <path d="M116.838 104.999L115.948 98.7713C115.863 98.2643 115.815 97.7513 115.806 97.2367C115.806 95.7945 116.42 94.4186 117.014 93.1061C121.941 95.483 127.267 96.3281 132.701 96.331C133.419 96.331 134.237 96.2618 134.683 95.682C135.607 96.781 135.635 98.5492 135.241 99.9453C134.848 101.341 134.091 102.599 133.589 103.961C133.335 104.65 133.128 105.403 132.643 105.934C131.889 106.773 130.667 106.917 129.556 106.911C128.387 106.904 127.221 106.789 126.072 106.568C123.097 105.997 119.814 104.448 116.838 104.999Z" fill="white"/>
        <path d="M135.214 104.745C131.389 104.295 127.591 103.661 123.817 102.841C121.966 102.44 120.099 101.993 118.212 102.071C116.984 102.123 115.663 102.377 114.583 101.748C115.635 105.449 115.7 109.349 114.441 112.98C113.695 115.144 112.559 117.16 112.012 119.387C110.873 124.045 112.437 129.125 111.013 133.7C110.862 134.298 110.566 134.846 110.153 135.292C109.718 135.705 109.123 135.918 108.721 136.365C108.13 137.023 108.093 138.012 108.09 138.909L108.065 146.856C108.049 151.916 108.113 157.281 110.698 161.567C113.645 166.471 119.85 169.012 125.251 167.521C126.687 167.141 128.033 166.461 129.204 165.522C131.08 163.981 132.274 161.755 133.444 159.585C134.84 156.989 136.235 154.336 136.685 151.414C137.003 149.345 136.824 147.234 136.595 145.154C135.334 133.616 132.595 122.176 133.184 110.595C133.272 108.478 133.98 106.438 135.214 104.745Z" fill="#6C63FF"/>
        <path d="M151.197 152.628C149.257 152.743 147.303 152.859 145.371 152.628C143.975 152.455 142.613 152.1 141.229 151.858C137.448 151.227 133.579 151.449 129.889 152.508C126.199 153.568 122.774 155.44 119.85 157.996C118.778 158.942 117.695 160.393 118.287 161.717C118.924 163.142 120.869 163.102 122.368 162.836C120.75 163.635 119.321 164.79 118.181 166.22C117.762 166.748 117.366 167.374 117.447 168.057C117.617 169.485 119.493 169.745 120.88 169.621C120.428 170.123 120.732 171.011 121.307 171.351C121.882 171.692 122.597 171.622 123.247 171.498C124.685 171.226 126.074 170.729 127.367 170.024C127.105 170.731 127.56 171.559 128.205 171.911C128.849 172.263 129.634 172.237 130.357 172.116C133.768 171.539 136.615 169.087 139.942 168.124C145.262 166.586 150.828 169.038 156.358 169.211C158.088 169.266 159.864 169.084 161.441 168.346C163.375 167.437 164.935 165.732 166.979 165.127C169.248 164.457 171.852 165.228 173.929 164.071C175.439 163.231 174.077 156.762 173.692 155.515C172.986 153.237 172.277 151.725 169.923 151.494C163.97 150.892 157.195 152.27 151.197 152.628Z" fill="#EFB7B9"/>
        <path d="M166.049 150.863C166.049 150.863 175.062 158.746 169.862 167.348L179.911 163.762V156.237C179.911 155.879 176.095 150.505 176.095 150.505L171.587 149.787L166.049 150.863Z" fill="white"/>
        <path d="M71.6779 150.375H75.0582C76.9089 150.375 78.6839 151.135 79.9925 152.487C81.3012 153.84 82.0364 155.674 82.0364 157.586V168.291H64.6996V157.586C64.6996 156.639 64.8801 155.702 65.2308 154.827C65.5815 153.952 66.0955 153.157 66.7435 152.487C67.3915 151.818 68.1608 151.287 69.0074 150.924C69.8541 150.562 70.7615 150.375 71.6779 150.375Z" fill="#3F3D56"/>
        <path opacity="0.1" d="M71.6779 150.375H75.0582C76.9089 150.375 78.6839 151.135 79.9925 152.487C81.3012 153.84 82.0364 155.674 82.0364 157.586V168.291H64.6996V157.586C64.6996 156.639 64.8801 155.702 65.2308 154.827C65.5815 153.952 66.0955 153.157 66.7435 152.487C67.3915 151.818 68.1608 151.287 69.0074 150.924C69.8541 150.562 70.7615 150.375 71.6779 150.375Z" fill="black"/>
        <path d="M72.6744 154.315C73.4406 154.315 74.0617 153.674 74.0617 152.882C74.0617 152.09 73.4406 151.448 72.6744 151.448C71.9082 151.448 71.2871 152.09 71.2871 152.882C71.2871 153.674 71.9082 154.315 72.6744 154.315Z" fill="#3F3D56"/>
        <path d="M72.6744 152.524C73.4406 152.524 74.0617 151.882 74.0617 151.091C74.0617 150.299 73.4406 149.657 72.6744 149.657C71.9082 149.657 71.2871 150.299 71.2871 151.091C71.2871 151.882 71.9082 152.524 72.6744 152.524Z" fill="#3F3D56"/>
        <path d="M72.6744 150.733C73.4406 150.733 74.0617 150.091 74.0617 149.299C74.0617 148.508 73.4406 147.866 72.6744 147.866C71.9082 147.866 71.2871 148.508 71.2871 149.299C71.2871 150.091 71.9082 150.733 72.6744 150.733Z" fill="#3F3D56"/>
        <path d="M72.6744 148.942C73.4406 148.942 74.0617 148.3 74.0617 147.508C74.0617 146.716 73.4406 146.074 72.6744 146.074C71.9082 146.074 71.2871 146.716 71.2871 147.508C71.2871 148.3 71.9082 148.942 72.6744 148.942Z" fill="#3F3D56"/>
        <path d="M72.6744 147.15C73.4406 147.15 74.0617 146.508 74.0617 145.717C74.0617 144.925 73.4406 144.283 72.6744 144.283C71.9082 144.283 71.2871 144.925 71.2871 145.717C71.2871 146.508 71.9082 147.15 72.6744 147.15Z" fill="#3F3D56"/>
        <path d="M72.6744 145.359C73.4406 145.359 74.0617 144.717 74.0617 143.925C74.0617 143.134 73.4406 142.492 72.6744 142.492C71.9082 142.492 71.2871 143.134 71.2871 143.925C71.2871 144.717 71.9082 145.359 72.6744 145.359Z" fill="#3F3D56"/>
        <path d="M72.6744 143.565C73.4406 143.565 74.0617 142.923 74.0617 142.131C74.0617 141.339 73.4406 140.698 72.6744 140.698C71.9082 140.698 71.2871 141.339 71.2871 142.131C71.2871 142.923 71.9082 143.565 72.6744 143.565Z" fill="#3F3D56"/>
        <path d="M74.7567 144.283C75.5229 144.283 76.144 143.641 76.144 142.849C76.144 142.058 75.5229 141.416 74.7567 141.416C73.9906 141.416 73.3694 142.058 73.3694 142.849C73.3694 143.641 73.9906 144.283 74.7567 144.283Z" fill="#3F3D56"/>
        <path d="M76.144 143.565C76.9102 143.565 77.5313 142.923 77.5313 142.131C77.5313 141.339 76.9102 140.698 76.144 140.698C75.3778 140.698 74.7567 141.339 74.7567 142.131C74.7567 142.923 75.3778 143.565 76.144 143.565Z" fill="#3F3D56"/>
        <path d="M77.5313 142.849C78.2974 142.849 78.9185 142.208 78.9185 141.416C78.9185 140.624 78.2974 139.982 77.5313 139.982C76.7651 139.982 76.144 140.624 76.144 141.416C76.144 142.208 76.7651 142.849 77.5313 142.849Z" fill="#3F3D56"/>
        <path d="M72.6744 141.774C73.4406 141.774 74.0617 141.132 74.0617 140.34C74.0617 139.548 73.4406 138.906 72.6744 138.906C71.9082 138.906 71.2871 139.548 71.2871 140.34C71.2871 141.132 71.9082 141.774 72.6744 141.774Z" fill="#3F3D56"/>
        <path d="M72.6744 139.982C73.4406 139.982 74.0617 139.34 74.0617 138.549C74.0617 137.757 73.4406 137.115 72.6744 137.115C71.9082 137.115 71.2871 137.757 71.2871 138.549C71.2871 139.34 71.9082 139.982 72.6744 139.982Z" fill="#3F3D56"/>
        <path d="M72.6744 138.191C73.4406 138.191 74.0617 137.549 74.0617 136.757C74.0617 135.966 73.4406 135.324 72.6744 135.324C71.9082 135.324 71.2871 135.966 71.2871 136.757C71.2871 137.549 71.9082 138.191 72.6744 138.191Z" fill="#3F3D56"/>
        <path d="M72.6744 136.4C73.4406 136.4 74.0617 135.758 74.0617 134.966C74.0617 134.174 73.4406 133.533 72.6744 133.533C71.9082 133.533 71.2871 134.174 71.2871 134.966C71.2871 135.758 71.9082 136.4 72.6744 136.4Z" fill="#3F3D56"/>
        <path d="M78.4357 130.342C78.0895 130.394 77.7434 130.432 77.3973 130.455C77.7191 130.165 78.0178 129.848 78.2905 129.509C78.0983 128.906 77.8157 128.339 77.4531 127.827C77.1093 128.027 76.7291 128.15 76.3366 128.19C75.9933 128.242 75.6471 128.28 75.301 128.306C75.756 127.922 76.1803 127.345 76.6269 126.864C75.6263 125.926 74.3443 125.373 72.9959 125.296C71.6475 125.219 70.3144 125.624 69.2202 126.441C68.1259 127.259 67.3368 128.441 66.9852 129.788C66.6335 131.136 66.7406 132.567 67.2886 133.843C67.8366 135.118 68.7921 136.16 69.9951 136.795C71.198 137.429 72.5754 137.617 73.8963 137.326C75.2173 137.036 76.4016 136.286 77.2509 135.201C78.1002 134.116 78.5628 132.762 78.5613 131.366C78.5614 131.015 78.5315 130.665 78.4719 130.319L78.4357 130.342Z" fill="#6C63FF"/>
        <path d="M83.0609 137.464C82.7071 137.689 82.3077 137.826 81.8941 137.865C81.5508 137.917 81.2046 137.957 80.8585 137.98C81.2264 137.639 81.5697 137.271 81.8857 136.879C81.0493 136.653 80.1616 136.758 79.3962 137.173C78.6308 137.588 78.0427 138.284 77.7469 139.123C77.4511 139.962 77.4689 140.885 77.7967 141.712C78.1245 142.538 78.7389 143.209 79.5196 143.592C80.3004 143.975 81.1914 144.044 82.0185 143.784C82.8456 143.525 83.5493 142.956 83.992 142.189C84.4347 141.421 84.5846 140.511 84.4124 139.636C84.2402 138.761 83.7583 137.983 83.0609 137.455V137.464Z" fill="#6C63FF"/>
        <path d="M70.5949 144.283C71.361 144.283 71.9821 143.641 71.9821 142.849C71.9821 142.058 71.361 141.416 70.5949 141.416C69.8287 141.416 69.2076 142.058 69.2076 142.849C69.2076 143.641 69.8287 144.283 70.5949 144.283Z" fill="#3F3D56"/>
        <path d="M69.2076 143.565C69.9738 143.565 70.5949 142.923 70.5949 142.131C70.5949 141.339 69.9738 140.698 69.2076 140.698C68.4414 140.698 67.8203 141.339 67.8203 142.131C67.8203 142.923 68.4414 143.565 69.2076 143.565Z" fill="#3F3D56"/>
        <path d="M67.8203 142.849C68.5865 142.849 69.2076 142.208 69.2076 141.416C69.2076 140.624 68.5865 139.982 67.8203 139.982C67.0542 139.982 66.433 140.624 66.433 141.416C66.433 142.208 67.0542 142.849 67.8203 142.849Z" fill="#3F3D56"/>
        <path d="M62.2907 137.464C62.6445 137.689 63.0438 137.826 63.4575 137.865C63.8008 137.917 64.1469 137.957 64.4931 137.98C64.1245 137.64 63.7811 137.272 63.4659 136.879C64.3023 136.653 65.19 136.758 65.9554 137.173C66.7208 137.588 67.3089 138.284 67.6047 139.123C67.9005 139.962 67.8827 140.885 67.5549 141.712C67.227 142.538 66.6127 143.209 65.8319 143.592C65.0512 143.975 64.1602 144.044 63.3331 143.784C62.506 143.525 61.8023 142.956 61.3596 142.189C60.9169 141.421 60.7669 140.511 60.9392 139.636C61.1114 138.761 61.5933 137.983 62.2907 137.455V137.464Z" fill="#6C63FF"/>
        <path d="M71.6779 151.437H75.0582C76.9089 151.437 78.6839 152.196 79.9925 153.549C81.3012 154.901 82.0364 156.735 82.0364 158.648V168.129C82.0364 168.454 81.9117 168.765 81.6898 168.994C81.4678 169.224 81.1668 169.352 80.8529 169.352H65.8748C65.5609 169.352 65.2599 169.224 65.0379 168.994C64.816 168.765 64.6913 168.454 64.6913 168.129V158.648C64.6913 157.7 64.8721 156.762 65.2233 155.886C65.5745 155.011 66.0893 154.216 66.7381 153.546C67.387 152.876 68.1573 152.345 69.0049 151.983C69.8525 151.621 70.7608 151.436 71.6779 151.437Z" fill="#3F3D56"/>
        <g opacity="0.1">
            <path opacity="0.1" d="M78.5306 130.735C78.3901 130.89 78.241 131.036 78.084 131.173C78.2431 131.173 78.3994 131.147 78.5585 131.13C78.5529 130.997 78.5445 130.864 78.5306 130.735Z" fill="black"/>
            <path opacity="0.1" d="M76.0016 129.021C76.3506 128.998 76.6939 128.961 77.04 128.909C77.3505 128.868 77.654 128.783 77.9416 128.655C77.8004 128.366 77.638 128.09 77.4559 127.827C77.2823 127.936 77.0942 128.019 76.8977 128.072C76.6239 128.413 76.3243 128.73 76.0016 129.021Z" fill="black"/>
            <path opacity="0.1" d="M67.4742 132.099C67.4721 131.005 67.7555 129.931 68.2945 128.99C68.8334 128.049 69.608 127.276 70.5367 126.751C71.4653 126.227 72.5136 125.971 73.5712 126.01C74.6288 126.05 75.6564 126.384 76.546 126.976L76.6353 126.878C76.0547 126.344 75.3777 125.934 74.6433 125.672C73.9088 125.41 73.1314 125.301 72.3558 125.35C71.5803 125.4 70.8219 125.608 70.1244 125.962C69.4269 126.316 68.804 126.809 68.2918 127.413C67.7795 128.016 67.3879 128.719 67.1395 129.48C66.8912 130.241 66.791 131.045 66.8447 131.846C66.8985 132.647 67.1051 133.429 67.4526 134.147C67.8002 134.866 68.2819 135.506 68.8699 136.031C67.9671 134.933 67.4723 133.539 67.4742 132.099Z" fill="black"/>
        </g>
        <g opacity="0.1">
            <path opacity="0.1" d="M80.8585 138.696C81.2046 138.673 81.5507 138.635 81.8941 138.583C82.3079 138.544 82.7073 138.405 83.0608 138.18C83.4527 138.478 83.7795 138.858 84.02 139.295C84.2604 139.733 84.4092 140.217 84.4565 140.718C84.47 140.592 84.4765 140.466 84.476 140.34C84.4786 139.78 84.3537 139.227 84.1112 138.726C83.8688 138.225 83.5157 137.789 83.0804 137.456C82.7266 137.68 82.3273 137.818 81.9136 137.856L81.6345 137.894C81.3963 138.182 81.1368 138.45 80.8585 138.696Z" fill="black"/>
            <path opacity="0.1" d="M80.998 137.473C81.1138 137.474 81.2294 137.483 81.3442 137.499C81.5256 137.3 81.7042 137.086 81.8857 136.879C81.3725 136.737 80.8347 136.719 80.3139 136.827C79.793 136.934 79.3031 137.165 78.8821 137.499C78.4611 137.834 78.1203 138.264 77.886 138.757C77.6518 139.249 77.5304 139.791 77.5313 140.34C77.5313 140.461 77.5313 140.579 77.548 140.698C77.6338 139.814 78.0344 138.994 78.6719 138.398C79.3094 137.803 80.1384 137.473 80.998 137.473Z" fill="black"/>
        </g>
        <g opacity="0.1">
            <path opacity="0.1" d="M64.4931 138.696C64.147 138.673 63.8008 138.635 63.4575 138.583C63.0437 138.544 62.6443 138.405 62.2908 138.18C61.8988 138.478 61.572 138.858 61.3316 139.295C61.0911 139.733 60.9424 140.217 60.8951 140.718C60.8816 140.592 60.875 140.466 60.8756 140.34C60.8729 139.78 60.9979 139.227 61.2403 138.726C61.4828 138.225 61.8359 137.789 62.2712 137.456C62.625 137.68 63.0243 137.818 63.438 137.856L63.7171 137.894C63.9538 138.183 64.2134 138.451 64.4931 138.696Z" fill="black"/>
            <path opacity="0.1" d="M64.3535 137.473C64.2368 137.474 64.1203 137.483 64.0046 137.499C63.826 137.3 63.6473 137.086 63.4659 136.879C63.9791 136.737 64.5169 136.719 65.0377 136.827C65.5586 136.934 66.0485 137.165 66.4695 137.499C66.8905 137.834 67.2313 138.264 67.4656 138.757C67.6998 139.249 67.8212 139.791 67.8203 140.34C67.8203 140.461 67.8203 140.579 67.8036 140.698C67.7178 139.814 67.3172 138.994 66.6797 138.398C66.0422 137.803 65.2132 137.473 64.3535 137.473Z" fill="black"/>
        </g>
        <path d="M54.9468 172.82H27.6758C27.3686 172.82 27.0739 172.693 26.8567 172.469C26.6394 172.244 26.5174 171.94 26.5174 171.622V158.284C26.5173 158.082 26.5668 157.884 26.6611 157.707C26.7553 157.53 26.8914 157.38 27.0567 157.272C27.2219 157.164 27.4109 157.101 27.606 157.089C27.8011 157.077 27.996 157.116 28.1726 157.203C36.0078 161.045 44.4487 162.363 54.4109 157.263C54.5875 157.173 54.7833 157.131 54.98 157.141C55.1767 157.151 55.3677 157.212 55.5352 157.319C55.7027 157.426 55.8411 157.575 55.9374 157.753C56.0337 157.93 56.0847 158.13 56.0857 158.334V171.602C56.0883 171.759 56.0609 171.916 56.005 172.062C55.9492 172.208 55.866 172.342 55.7603 172.455C55.6545 172.568 55.5282 172.658 55.3887 172.721C55.2491 172.783 55.099 172.817 54.9468 172.82Z" fill="#6C63FF"/>
        <path opacity="0.1" d="M54.9468 172.82H27.6758C27.3686 172.82 27.0739 172.693 26.8567 172.469C26.6394 172.244 26.5174 171.94 26.5174 171.622V158.284C26.5173 158.082 26.5668 157.884 26.6611 157.707C26.7553 157.53 26.8914 157.38 27.0567 157.272C27.2219 157.164 27.4109 157.101 27.606 157.089C27.8011 157.077 27.996 157.116 28.1726 157.203C36.0078 161.045 44.4487 162.363 54.4109 157.263C54.5875 157.173 54.7833 157.131 54.98 157.141C55.1767 157.151 55.3677 157.212 55.5352 157.319C55.7027 157.426 55.8411 157.575 55.9374 157.753C56.0337 157.93 56.0847 158.13 56.0857 158.334V171.602C56.0883 171.759 56.0609 171.916 56.005 172.062C55.9492 172.208 55.866 172.342 55.7603 172.455C55.6545 172.568 55.5282 172.658 55.3887 172.721C55.2491 172.783 55.099 172.817 54.9468 172.82Z" fill="black"/>
        <path d="M41.1215 162.68C42.0125 162.68 42.7349 161.703 42.7349 160.497C42.7349 159.291 42.0125 158.313 41.1215 158.313C40.2305 158.313 39.5081 159.291 39.5081 160.497C39.5081 161.703 40.2305 162.68 41.1215 162.68Z" fill="#3F3D56"/>
        <path d="M41.1215 160.012C42.0125 160.012 42.7349 159.035 42.7349 157.829C42.7349 156.623 42.0125 155.645 41.1215 155.645C40.2305 155.645 39.5081 156.623 39.5081 157.829C39.5081 159.035 40.2305 160.012 41.1215 160.012Z" fill="#3F3D56"/>
        <path d="M41.1215 157.341C42.0125 157.341 42.7349 156.364 42.7349 155.158C42.7349 153.952 42.0125 152.974 41.1215 152.974C40.2305 152.974 39.5081 153.952 39.5081 155.158C39.5081 156.364 40.2305 157.341 41.1215 157.341Z" fill="#3F3D56"/>
        <path d="M41.1215 154.673C42.0125 154.673 42.7349 153.696 42.7349 152.49C42.7349 151.284 42.0125 150.306 41.1215 150.306C40.2305 150.306 39.5081 151.284 39.5081 152.49C39.5081 153.696 40.2305 154.673 41.1215 154.673Z" fill="#3F3D56"/>
        <path d="M41.1215 152.002C42.0125 152.002 42.7349 151.024 42.7349 149.818C42.7349 148.613 42.0125 147.635 41.1215 147.635C40.2305 147.635 39.5081 148.613 39.5081 149.818C39.5081 151.024 40.2305 152.002 41.1215 152.002Z" fill="#3F3D56"/>
        <path d="M41.1215 149.331C42.0125 149.331 42.7349 148.353 42.7349 147.147C42.7349 145.941 42.0125 144.964 41.1215 144.964C40.2305 144.964 39.5081 145.941 39.5081 147.147C39.5081 148.353 40.2305 149.331 41.1215 149.331Z" fill="#3F3D56"/>
        <path d="M41.1215 146.663C42.0125 146.663 42.7349 145.685 42.7349 144.479C42.7349 143.273 42.0125 142.296 41.1215 142.296C40.2305 142.296 39.5081 143.273 39.5081 144.479C39.5081 145.685 40.2305 146.663 41.1215 146.663Z" fill="#3F3D56"/>
        <path d="M47.173 126.209C47.3921 125.918 47.5926 125.612 47.7732 125.294L43.5304 124.573L48.1193 124.608C48.562 123.617 48.8036 122.542 48.829 121.451C48.8545 120.359 48.6633 119.274 48.2672 118.262L42.1124 121.562L47.7899 117.235C47.2583 116.285 46.5431 115.458 45.6887 114.806C44.8344 114.154 43.8593 113.691 42.8242 113.446C41.7892 113.2 40.7162 113.178 39.6723 113.379C38.6284 113.581 37.6359 114.003 36.7566 114.618C35.8773 115.234 35.13 116.03 34.5614 116.957C33.9928 117.883 33.615 118.921 33.4515 120.006C33.2881 121.09 33.3424 122.198 33.6113 123.259C33.8801 124.321 34.3576 125.314 35.0141 126.177C34.6692 126.628 34.3734 127.116 34.1321 127.634L39.6365 130.622L33.7748 128.574C33.3639 129.833 33.2628 131.178 33.4807 132.487C33.6985 133.796 34.2284 135.029 35.0225 136.074C34.1251 137.253 33.5669 138.669 33.4116 140.16C33.2564 141.652 33.5103 143.158 34.1445 144.507C34.7787 145.857 35.7675 146.994 36.9978 147.79C38.2282 148.586 39.6504 149.008 41.102 149.008C42.5535 149.008 43.9757 148.586 45.2061 147.79C46.4364 146.994 47.4252 145.857 48.0594 144.507C48.6936 143.158 48.9476 141.652 48.7923 140.16C48.637 138.669 48.0788 137.253 47.1814 136.074C48.2535 134.665 48.8364 132.925 48.8364 131.133C48.8364 129.34 48.2535 127.6 47.1814 126.191L47.173 126.209Z" fill="#6C63FF"/>
        <path opacity="0.1" d="M33.3533 131.15C33.3507 132.943 33.934 134.684 35.0085 136.091C34.1111 137.27 33.5529 138.686 33.3977 140.178C33.2424 141.669 33.4964 143.175 34.1306 144.525C34.7647 145.874 35.7535 147.012 36.9839 147.808C38.2142 148.603 39.6364 149.026 41.088 149.026C42.5395 149.026 43.9618 148.603 45.1921 147.808C46.4224 147.012 47.4112 145.874 48.0454 144.525C48.6796 143.175 48.9336 141.669 48.7783 140.178C48.6231 138.686 48.0648 137.27 47.1674 136.091C48.203 134.732 33.3533 130.253 33.3533 131.15Z" fill="black"/>
        <path d="M54.9468 173.526H27.6758C27.3686 173.526 27.0739 173.4 26.8567 173.176C26.6394 172.951 26.5174 172.647 26.5174 172.329V158.284C26.5173 158.082 26.5668 157.884 26.6611 157.707C26.7553 157.53 26.8914 157.38 27.0567 157.272C27.2219 157.164 27.4109 157.101 27.606 157.089C27.8011 157.077 27.996 157.116 28.1726 157.203C36.0078 161.045 42.2213 165.525 54.4109 157.263C55.1339 156.773 56.0857 157.442 56.0857 158.334V172.323C56.0872 172.638 55.9685 172.941 55.7553 173.167C55.5421 173.392 55.2516 173.521 54.9468 173.526Z" fill="#6C63FF"/>
        <path d="M257.311 169.554L217.077 175.055L215.064 175.329L195.394 164.472V161.931L256.864 155.002L257.311 169.554Z" fill="#9C9CA1"/>
        <path d="M206.794 165.626L250.38 160.315L249.933 168.631L215.983 171.204L206.794 165.626Z" fill="#939498"/>
        <path opacity="0.4" d="M217.077 172.323V175.052L215.064 175.341L195.391 164.472V161.931L214.168 172.315C214.168 172.315 216.63 172.554 217.077 172.323Z" fill="black"/>
        <path d="M224.8 129.013L215.768 172.295C215.677 172.728 215.688 173.178 215.8 173.605C215.913 174.033 216.123 174.427 216.414 174.753C216.705 175.079 217.067 175.328 217.471 175.479C217.874 175.63 218.307 175.679 218.732 175.62L275.879 167.803C276.376 167.736 276.846 167.524 277.233 167.194C277.62 166.863 277.909 166.427 278.067 165.934L290.396 127.513C290.532 127.086 290.566 126.632 290.495 126.189C290.423 125.746 290.249 125.328 289.986 124.97C289.724 124.613 289.381 124.327 288.987 124.136C288.594 123.946 288.162 123.857 287.728 123.878L227.29 126.843C226.702 126.872 226.14 127.1 225.69 127.492C225.24 127.884 224.927 128.419 224.8 129.013Z" fill="#3F3D56"/>
        <path d="M256.201 144.98C256.341 143.602 255.76 142.409 254.903 142.316C254.046 142.223 253.238 143.265 253.098 144.643C252.958 146.021 253.539 147.214 254.396 147.307C255.253 147.4 256.061 146.358 256.201 144.98Z" fill="white"/>
    </g>
    <defs>
        <clipPath id="clip0">
            <rect width="321" height="181" fill="white"/>
        </clipPath>
    </defs>
</svg>
