<svg width="266" height="197" viewBox="0 0 266 197" fill="none" xmlns="http://www.w3.org/2000/svg">
    <g clip-path="url(#clip0)">
        <path opacity="0.1" d="M76.4143 33.7863H56.4609C55.3099 33.7863 54.3769 34.6508 54.3769 35.7173V38.6125C54.3769 39.679 55.3099 40.5435 56.4609 40.5435H76.4143C77.5653 40.5435 78.4983 39.679 78.4983 38.6125V35.7173C78.4983 34.6508 77.5653 33.7863 76.4143 33.7863Z" fill="#6C63FF"/>
        <path opacity="0.1" d="M101.658 40.5435H81.7042C80.5532 40.5435 79.6202 41.4081 79.6202 42.4745V45.3698C79.6202 46.4362 80.5532 47.3008 81.7042 47.3008H101.658C102.809 47.3008 103.742 46.4362 103.742 45.3698V42.4745C103.742 41.4081 102.809 40.5435 101.658 40.5435Z" fill="#6C63FF"/>
        <path opacity="0.1" d="M126.901 47.3008H106.947C105.797 47.3008 104.864 48.1653 104.864 49.2318V52.127C104.864 53.1935 105.797 54.058 106.947 54.058H126.901C128.052 54.058 128.985 53.1935 128.985 52.127V49.2318C128.985 48.1653 128.052 47.3008 126.901 47.3008Z" fill="#6C63FF"/>
        <path opacity="0.1" d="M76.4143 23.6504H56.4609C55.3099 23.6504 54.3769 24.5149 54.3769 25.5814V28.4766C54.3769 29.5431 55.3099 30.4076 56.4609 30.4076H76.4143C77.5653 30.4076 78.4983 29.5431 78.4983 28.4766V25.5814C78.4983 24.5149 77.5653 23.6504 76.4143 23.6504Z" fill="#6C63FF"/>
        <path opacity="0.1" d="M101.658 30.4077H81.7042C80.5532 30.4077 79.6202 31.2722 79.6202 32.3387V35.2339C79.6202 36.3004 80.5532 37.1649 81.7042 37.1649H101.658C102.809 37.1649 103.742 36.3004 103.742 35.2339V32.3387C103.742 31.2722 102.809 30.4077 101.658 30.4077Z" fill="#6C63FF"/>
        <path opacity="0.1" d="M126.901 37.1649H106.947C105.797 37.1649 104.864 38.0295 104.864 39.0959V41.9912C104.864 43.0576 105.797 43.9222 106.947 43.9222H126.901C128.052 43.9222 128.985 43.0576 128.985 41.9912V39.0959C128.985 38.0295 128.052 37.1649 126.901 37.1649Z" fill="#6C63FF"/>
        <path opacity="0.1" d="M154.949 33.7863H134.996C133.845 33.7863 132.912 34.6508 132.912 35.7173V38.6125C132.912 39.679 133.845 40.5435 134.996 40.5435H154.949C156.1 40.5435 157.033 39.679 157.033 38.6125V35.7173C157.033 34.6508 156.1 33.7863 154.949 33.7863Z" fill="#6C63FF"/>
        <path opacity="0.1" d="M180.192 40.5435H160.239C159.088 40.5435 158.155 41.4081 158.155 42.4745V45.3698C158.155 46.4362 159.088 47.3008 160.239 47.3008H180.192C181.343 47.3008 182.276 46.4362 182.276 45.3698V42.4745C182.276 41.4081 181.343 40.5435 180.192 40.5435Z" fill="#6C63FF"/>
        <path opacity="0.1" d="M205.436 47.3008H185.482C184.331 47.3008 183.398 48.1653 183.398 49.2318V52.127C183.398 53.1935 184.331 54.058 185.482 54.058H205.436C206.587 54.058 207.52 53.1935 207.52 52.127V49.2318C207.52 48.1653 206.587 47.3008 205.436 47.3008Z" fill="#6C63FF"/>
        <path opacity="0.1" d="M154.949 23.6504H134.996C133.845 23.6504 132.912 24.5149 132.912 25.5814V28.4766C132.912 29.5431 133.845 30.4076 134.996 30.4076H154.949C156.1 30.4076 157.033 29.5431 157.033 28.4766V25.5814C157.033 24.5149 156.1 23.6504 154.949 23.6504Z" fill="#6C63FF"/>
        <path opacity="0.1" d="M180.192 30.4077H160.239C159.088 30.4077 158.155 31.2722 158.155 32.3387V35.2339C158.155 36.3004 159.088 37.1649 160.239 37.1649H180.192C181.343 37.1649 182.276 36.3004 182.276 35.2339V32.3387C182.276 31.2722 181.343 30.4077 180.192 30.4077Z" fill="#6C63FF"/>
        <path opacity="0.1" d="M205.436 37.1649H185.482C184.331 37.1649 183.398 38.0295 183.398 39.0959V41.9912C183.398 43.0576 184.331 43.9222 185.482 43.9222H205.436C206.587 43.9222 207.52 43.0576 207.52 41.9912V39.0959C207.52 38.0295 206.587 37.1649 205.436 37.1649Z" fill="#6C63FF"/>
        <path opacity="0.1" d="M76.4143 10.1359H56.4609C55.3099 10.1359 54.3769 11.0004 54.3769 12.0669V14.9621C54.3769 16.0286 55.3099 16.8931 56.4609 16.8931H76.4143C77.5653 16.8931 78.4983 16.0286 78.4983 14.9621V12.0669C78.4983 11.0004 77.5653 10.1359 76.4143 10.1359Z" fill="#6C63FF"/>
        <path opacity="0.1" d="M101.658 16.8931H81.7042C80.5532 16.8931 79.6202 17.7577 79.6202 18.8241V21.7194C79.6202 22.7858 80.5532 23.6504 81.7042 23.6504H101.658C102.809 23.6504 103.742 22.7858 103.742 21.7194V18.8241C103.742 17.7577 102.809 16.8931 101.658 16.8931Z" fill="#6C63FF"/>
        <path opacity="0.1" d="M126.901 23.6504H106.947C105.797 23.6504 104.864 24.5149 104.864 25.5814V28.4766C104.864 29.5431 105.797 30.4076 106.947 30.4076H126.901C128.052 30.4076 128.985 29.5431 128.985 28.4766V25.5814C128.985 24.5149 128.052 23.6504 126.901 23.6504Z" fill="#6C63FF"/>
        <path opacity="0.1" d="M76.4143 0H56.4609C55.3099 0 54.3769 0.864545 54.3769 1.93102V4.82624C54.3769 5.89271 55.3099 6.75725 56.4609 6.75725H76.4143C77.5653 6.75725 78.4983 5.89271 78.4983 4.82624V1.93102C78.4983 0.864545 77.5653 0 76.4143 0Z" fill="#6C63FF"/>
        <path opacity="0.1" d="M101.658 6.75726H81.7042C80.5532 6.75726 79.6202 7.62181 79.6202 8.68828V11.5835C79.6202 12.65 80.5532 13.5145 81.7042 13.5145H101.658C102.809 13.5145 103.742 12.65 103.742 11.5835V8.68828C103.742 7.62181 102.809 6.75726 101.658 6.75726Z" fill="#6C63FF"/>
        <path opacity="0.1" d="M126.901 13.5145H106.947C105.797 13.5145 104.864 14.3791 104.864 15.4455V18.3408C104.864 19.4072 105.797 20.2718 106.947 20.2718H126.901C128.052 20.2718 128.985 19.4072 128.985 18.3408V15.4455C128.985 14.3791 128.052 13.5145 126.901 13.5145Z" fill="#6C63FF"/>
        <path opacity="0.1" d="M154.949 10.1359H134.996C133.845 10.1359 132.912 11.0004 132.912 12.0669V14.9621C132.912 16.0286 133.845 16.8931 134.996 16.8931H154.949C156.1 16.8931 157.033 16.0286 157.033 14.9621V12.0669C157.033 11.0004 156.1 10.1359 154.949 10.1359Z" fill="#6C63FF"/>
        <path opacity="0.1" d="M180.192 16.8931H160.239C159.088 16.8931 158.155 17.7577 158.155 18.8241V21.7194C158.155 22.7858 159.088 23.6504 160.239 23.6504H180.192C181.343 23.6504 182.276 22.7858 182.276 21.7194V18.8241C182.276 17.7577 181.343 16.8931 180.192 16.8931Z" fill="#6C63FF"/>
        <path opacity="0.1" d="M205.436 23.6504H185.482C184.331 23.6504 183.398 24.5149 183.398 25.5814V28.4766C183.398 29.5431 184.331 30.4076 185.482 30.4076H205.436C206.587 30.4076 207.52 29.5431 207.52 28.4766V25.5814C207.52 24.5149 206.587 23.6504 205.436 23.6504Z" fill="#6C63FF"/>
        <path opacity="0.1" d="M154.949 0H134.996C133.845 0 132.912 0.864545 132.912 1.93102V4.82624C132.912 5.89271 133.845 6.75725 134.996 6.75725H154.949C156.1 6.75725 157.033 5.89271 157.033 4.82624V1.93102C157.033 0.864545 156.1 0 154.949 0Z" fill="#6C63FF"/>
        <path opacity="0.1" d="M180.192 6.75726H160.239C159.088 6.75726 158.155 7.62181 158.155 8.68828V11.5835C158.155 12.65 159.088 13.5145 160.239 13.5145H180.192C181.343 13.5145 182.276 12.65 182.276 11.5835V8.68828C182.276 7.62181 181.343 6.75726 180.192 6.75726Z" fill="#6C63FF"/>
        <path opacity="0.1" d="M205.436 13.5145H185.482C184.331 13.5145 183.398 14.3791 183.398 15.4455V18.3408C183.398 19.4072 184.331 20.2718 185.482 20.2718H205.436C206.587 20.2718 207.52 19.4072 207.52 18.3408V15.4455C207.52 14.3791 206.587 13.5145 205.436 13.5145Z" fill="#6C63FF"/>
        <path opacity="0.1" d="M76.4143 154.117H56.4609C55.3099 154.117 54.3769 154.982 54.3769 156.048V158.944C54.3769 160.01 55.3099 160.875 56.4609 160.875H76.4143C77.5653 160.875 78.4983 160.01 78.4983 158.944V156.048C78.4983 154.982 77.5653 154.117 76.4143 154.117Z" fill="#6C63FF"/>
        <path opacity="0.1" d="M101.658 160.875H81.7042C80.5532 160.875 79.6202 161.739 79.6202 162.806V165.701C79.6202 166.767 80.5532 167.632 81.7042 167.632H101.658C102.809 167.632 103.742 166.767 103.742 165.701V162.806C103.742 161.739 102.809 160.875 101.658 160.875Z" fill="#6C63FF"/>
        <path opacity="0.1" d="M126.901 167.632H106.947C105.797 167.632 104.864 168.497 104.864 169.563V172.458C104.864 173.525 105.797 174.389 106.947 174.389H126.901C128.052 174.389 128.985 173.525 128.985 172.458V169.563C128.985 168.497 128.052 167.632 126.901 167.632Z" fill="#6C63FF"/>
        <path opacity="0.1" d="M76.4143 143.982H56.4609C55.3099 143.982 54.3769 144.846 54.3769 145.913V148.808C54.3769 149.874 55.3099 150.739 56.4609 150.739H76.4143C77.5653 150.739 78.4983 149.874 78.4983 148.808V145.913C78.4983 144.846 77.5653 143.982 76.4143 143.982Z" fill="#6C63FF"/>
        <path opacity="0.1" d="M101.658 150.739H81.7042C80.5532 150.739 79.6202 151.603 79.6202 152.67V155.565C79.6202 156.631 80.5532 157.496 81.7042 157.496H101.658C102.809 157.496 103.742 156.631 103.742 155.565V152.67C103.742 151.603 102.809 150.739 101.658 150.739Z" fill="#6C63FF"/>
        <path opacity="0.1" d="M126.901 157.496H106.947C105.797 157.496 104.864 158.361 104.864 159.427V162.322C104.864 163.389 105.797 164.253 106.947 164.253H126.901C128.052 164.253 128.985 163.389 128.985 162.322V159.427C128.985 158.361 128.052 157.496 126.901 157.496Z" fill="#6C63FF"/>
        <path opacity="0.1" d="M154.949 154.117H134.996C133.845 154.117 132.912 154.982 132.912 156.048V158.944C132.912 160.01 133.845 160.875 134.996 160.875H154.949C156.1 160.875 157.033 160.01 157.033 158.944V156.048C157.033 154.982 156.1 154.117 154.949 154.117Z" fill="#6C63FF"/>
        <path opacity="0.1" d="M180.192 160.875H160.239C159.088 160.875 158.155 161.739 158.155 162.806V165.701C158.155 166.767 159.088 167.632 160.239 167.632H180.192C181.343 167.632 182.276 166.767 182.276 165.701V162.806C182.276 161.739 181.343 160.875 180.192 160.875Z" fill="#6C63FF"/>
        <path opacity="0.1" d="M205.436 167.632H185.482C184.331 167.632 183.398 168.497 183.398 169.563V172.458C183.398 173.525 184.331 174.389 185.482 174.389H205.436C206.587 174.389 207.52 173.525 207.52 172.458V169.563C207.52 168.497 206.587 167.632 205.436 167.632Z" fill="#6C63FF"/>
        <path opacity="0.1" d="M154.949 143.982H134.996C133.845 143.982 132.912 144.846 132.912 145.913V148.808C132.912 149.874 133.845 150.739 134.996 150.739H154.949C156.1 150.739 157.033 149.874 157.033 148.808V145.913C157.033 144.846 156.1 143.982 154.949 143.982Z" fill="#6C63FF"/>
        <path opacity="0.1" d="M180.192 150.739H160.239C159.088 150.739 158.155 151.603 158.155 152.67V155.565C158.155 156.631 159.088 157.496 160.239 157.496H180.192C181.343 157.496 182.276 156.631 182.276 155.565V152.67C182.276 151.603 181.343 150.739 180.192 150.739Z" fill="#6C63FF"/>
        <path opacity="0.1" d="M205.436 157.496H185.482C184.331 157.496 183.398 158.361 183.398 159.427V162.322C183.398 163.389 184.331 164.253 185.482 164.253H205.436C206.587 164.253 207.52 163.389 207.52 162.322V159.427C207.52 158.361 206.587 157.496 205.436 157.496Z" fill="#6C63FF"/>
        <path opacity="0.1" d="M76.4143 130.467H56.4609C55.3099 130.467 54.3769 131.332 54.3769 132.398V135.293C54.3769 136.36 55.3099 137.224 56.4609 137.224H76.4143C77.5653 137.224 78.4983 136.36 78.4983 135.293V132.398C78.4983 131.332 77.5653 130.467 76.4143 130.467Z" fill="#6C63FF"/>
        <path opacity="0.1" d="M101.658 137.224H81.7042C80.5532 137.224 79.6202 138.089 79.6202 139.155V142.05C79.6202 143.117 80.5532 143.982 81.7042 143.982H101.658C102.809 143.982 103.742 143.117 103.742 142.05V139.155C103.742 138.089 102.809 137.224 101.658 137.224Z" fill="#6C63FF"/>
        <path opacity="0.1" d="M126.901 143.982H106.947C105.797 143.982 104.864 144.846 104.864 145.913V148.808C104.864 149.874 105.797 150.739 106.947 150.739H126.901C128.052 150.739 128.985 149.874 128.985 148.808V145.913C128.985 144.846 128.052 143.982 126.901 143.982Z" fill="#6C63FF"/>
        <path opacity="0.1" d="M76.4143 120.331H56.4609C55.3099 120.331 54.3769 121.196 54.3769 122.262V125.157C54.3769 126.224 55.3099 127.088 56.4609 127.088H76.4143C77.5653 127.088 78.4983 126.224 78.4983 125.157V122.262C78.4983 121.196 77.5653 120.331 76.4143 120.331Z" fill="#6C63FF"/>
        <path opacity="0.1" d="M101.658 127.088H81.7042C80.5532 127.088 79.6202 127.953 79.6202 129.019V131.915C79.6202 132.981 80.5532 133.846 81.7042 133.846H101.658C102.809 133.846 103.742 132.981 103.742 131.915V129.019C103.742 127.953 102.809 127.088 101.658 127.088Z" fill="#6C63FF"/>
        <path opacity="0.1" d="M126.901 133.846H106.947C105.797 133.846 104.864 134.71 104.864 135.777V138.672C104.864 139.738 105.797 140.603 106.947 140.603H126.901C128.052 140.603 128.985 139.738 128.985 138.672V135.777C128.985 134.71 128.052 133.846 126.901 133.846Z" fill="#6C63FF"/>
        <path opacity="0.1" d="M154.949 130.467H134.996C133.845 130.467 132.912 131.332 132.912 132.398V135.293C132.912 136.36 133.845 137.224 134.996 137.224H154.949C156.1 137.224 157.033 136.36 157.033 135.293V132.398C157.033 131.332 156.1 130.467 154.949 130.467Z" fill="#6C63FF"/>
        <path opacity="0.1" d="M180.192 137.224H160.239C159.088 137.224 158.155 138.089 158.155 139.155V142.05C158.155 143.117 159.088 143.982 160.239 143.982H180.192C181.343 143.982 182.276 143.117 182.276 142.05V139.155C182.276 138.089 181.343 137.224 180.192 137.224Z" fill="#6C63FF"/>
        <path opacity="0.1" d="M205.436 143.982H185.482C184.331 143.982 183.398 144.846 183.398 145.913V148.808C183.398 149.874 184.331 150.739 185.482 150.739H205.436C206.587 150.739 207.52 149.874 207.52 148.808V145.913C207.52 144.846 206.587 143.982 205.436 143.982Z" fill="#6C63FF"/>
        <path opacity="0.1" d="M154.949 120.331H134.996C133.845 120.331 132.912 121.196 132.912 122.262V125.157C132.912 126.224 133.845 127.088 134.996 127.088H154.949C156.1 127.088 157.033 126.224 157.033 125.157V122.262C157.033 121.196 156.1 120.331 154.949 120.331Z" fill="#6C63FF"/>
        <path opacity="0.1" d="M180.192 127.088H160.239C159.088 127.088 158.155 127.953 158.155 129.019V131.915C158.155 132.981 159.088 133.846 160.239 133.846H180.192C181.343 133.846 182.276 132.981 182.276 131.915V129.019C182.276 127.953 181.343 127.088 180.192 127.088Z" fill="#6C63FF"/>
        <path opacity="0.1" d="M205.436 133.846H185.482C184.331 133.846 183.398 134.71 183.398 135.777V138.672C183.398 139.738 184.331 140.603 185.482 140.603H205.436C206.587 140.603 207.52 139.738 207.52 138.672V135.777C207.52 134.71 206.587 133.846 205.436 133.846Z" fill="#6C63FF"/>
        <path opacity="0.1" d="M135.296 197C203.222 197 258.287 192.811 258.287 187.644C258.287 182.477 203.222 178.288 135.296 178.288C67.3697 178.288 12.3047 182.477 12.3047 187.644C12.3047 192.811 67.3697 197 135.296 197Z" fill="#6C63FF"/>
        <path d="M23.7427 48.5483C35.3406 53.2056 42.0049 62.8425 42.0049 62.8425C42.0049 62.8425 29.8628 64.9216 18.2621 60.2669C6.66143 55.6122 0 45.9727 0 45.9727C0 45.9727 12.142 43.891 23.7427 48.5483Z" fill="#6C63FF"/>
        <path d="M59.3358 30.6676C62.9232 25.2098 69.032 22.6108 69.032 22.6108C69.032 22.6108 69.3125 28.8327 65.7364 34.2749C62.1603 39.7171 56.0373 42.3134 56.0373 42.3134C56.0373 42.3134 55.7456 36.0942 59.3358 30.6676Z" fill="#6C63FF"/>
        <path d="M32.965 36.5073C35.5314 44.9955 42.6051 50.5832 42.6051 50.5832C42.6051 50.5832 45.5193 42.4043 42.9529 33.9136C40.3865 25.4228 33.31 19.8377 33.31 19.8377C33.31 19.8377 30.3958 28.0166 32.965 36.5073Z" fill="#46455B"/>
        <path d="M235.789 36.1253H35.3631C34.2462 36.1253 33.3408 36.9643 33.3408 37.9991V129.113C33.3408 130.148 34.2462 130.987 35.3631 130.987H235.789C236.906 130.987 237.812 130.148 237.812 129.113V37.9991C237.812 36.9643 236.906 36.1253 235.789 36.1253Z" fill="#3F3D56"/>
        <path opacity="0.1" d="M33.3408 125.269H237.812V129.113C237.812 129.61 237.599 130.087 237.219 130.438C236.84 130.789 236.326 130.987 235.789 130.987H35.3631C34.8268 130.987 34.3124 130.789 33.9331 130.438C33.5539 130.087 33.3408 129.61 33.3408 129.113V125.269Z" fill="black"/>
        <path d="M67.6998 118.252H53.9562C53.5689 118.252 53.255 118.543 53.255 118.902V124.619C53.255 124.978 53.5689 125.269 53.9562 125.269H67.6998C68.087 125.269 68.401 124.978 68.401 124.619V118.902C68.401 118.543 68.087 118.252 67.6998 118.252Z" fill="#6C63FF"/>
        <path d="M82.425 124.23H73.1691C72.8593 124.23 72.6082 124.462 72.6082 124.749C72.6082 125.036 72.8593 125.269 73.1691 125.269H82.425C82.7348 125.269 82.986 125.036 82.986 124.749C82.986 124.462 82.7348 124.23 82.425 124.23Z" fill="#6C63FF"/>
        <path d="M63.3944 54.6766C70.7963 55.9423 78.3468 54.6766 85.7179 53.8189L108.12 51.22C109.026 51.1134 110.344 50.6118 110.877 51.6384C111.177 52.2128 110.975 53.4577 110.998 54.1178C111.057 55.9371 111.051 57.7563 110.998 59.5756C110.897 63.053 110.622 66.5226 110.271 69.9844C109.59 76.7598 108.625 83.4989 108.142 90.3003C107.896 93.7621 107.772 97.2343 107.882 100.696C107.907 101.523 107.943 102.349 107.996 103.173C108.055 104.096 108.501 105.465 107.416 106.081C106.796 106.435 105.576 106.416 104.866 106.52C103.744 106.684 102.622 106.814 101.478 106.921C93.936 107.62 86.2957 107.329 78.7255 107.287L55.8663 107.178L50.2903 107.149C49.7854 107.149 47.9651 107.43 47.6538 106.874C47.5219 106.637 47.8725 105.53 47.9342 105.234C48.0203 104.745 48.1137 104.258 48.2147 103.771C48.8654 100.353 49.634 96.9562 50.4081 93.562C52.0713 86.2849 53.7739 78.9715 54.4582 71.5385C54.7976 67.8091 54.5732 64.0458 54.9883 60.3241C55.1819 58.5958 55.4119 54.739 57.8941 54.5856C59.9977 54.4557 62.1631 54.5856 64.2723 54.5856C64.3839 54.5856 64.4909 54.5445 64.5698 54.4714C64.6487 54.3983 64.693 54.2992 64.693 54.1958C64.693 54.0924 64.6487 53.9932 64.5698 53.9201C64.4909 53.847 64.3839 53.8059 64.2723 53.8059C62.2809 53.8059 60.2866 53.7566 58.2952 53.7929C56.9713 53.8163 56.0514 54.1074 55.4203 55.2354C53.8075 58.1306 53.973 61.9926 53.9225 65.1529C53.8019 72.7185 52.5482 80.1229 50.9158 87.522C50.0939 91.2463 49.2076 94.9576 48.3914 98.6845C48.0072 100.465 47.6397 102.25 47.3032 104.041C47.1461 104.893 46.3523 106.772 47.0507 107.555C47.7491 108.337 49.8976 107.916 50.8597 107.921L57.5519 107.958L70.3756 108.025C78.661 108.069 86.9744 108.285 95.257 108.059C99.2118 107.95 103.391 107.799 107.242 106.923C108.389 106.663 108.942 106.175 108.987 105.042C109.054 103.285 108.745 101.473 108.706 99.7085C108.426 84.6086 112.254 69.7193 111.862 54.6142C111.836 53.5876 112.254 50.9991 111.043 50.3779C110.498 50.0972 109.792 50.2506 109.219 50.313C108.126 50.4299 107.034 50.5728 105.941 50.6924L91.7342 52.3349C87.1932 52.8547 82.655 53.4161 78.1056 53.8943C73.2898 54.4141 68.4262 54.7234 63.6272 53.8943C63.0971 53.8033 62.8699 54.5544 63.4028 54.6454L63.3944 54.6766Z" fill="#6C63FF"/>
        <path d="M54.4638 63.8639L110.51 61.3169C111.051 61.2909 111.054 60.5112 110.51 60.5372L54.4638 63.0842C53.9253 63.1076 53.9225 63.8872 54.4638 63.8639Z" fill="#6C63FF"/>
        <path d="M71.7303 57.4367C71.5735 57.5906 71.4597 57.7777 71.3988 57.9816C71.3378 58.1856 71.3315 58.4002 71.3804 58.6069C71.4294 58.8136 71.532 59.0061 71.6795 59.1677C71.827 59.3293 72.0149 59.4551 72.2267 59.5341C72.9812 59.8537 73.8675 59.586 74.6164 59.4119C75.7384 59.152 76.8603 58.9207 78.0131 58.731C80.5221 58.3194 83.0634 58.1003 85.6113 58.076C86.7725 58.0631 87.9253 58.1124 89.0865 58.1592C89.9279 58.1904 90.8339 58.2528 91.5463 57.7694C92.3597 57.2184 92.6233 56.1424 91.8268 55.4719C90.7048 54.5233 88.2871 55.0743 86.9913 55.173C82.2892 55.535 77.6177 56.1809 73.0065 57.1066C72.4792 57.2106 72.7007 57.9643 73.2309 57.8577C76.2731 57.2496 79.3388 56.761 82.4278 56.3919C83.9462 56.2187 85.4673 56.0723 86.9913 55.9527C87.7093 55.8981 88.4273 55.8487 89.1454 55.8098C89.4258 55.7942 89.7232 55.7656 90.0092 55.7734C90.8984 55.7916 91.0021 55.6434 90.4692 56.6388C89.9952 57.5199 90.1467 57.4185 89.3249 57.3899C88.9771 57.3899 88.6293 57.3535 88.2815 57.3379C87.5691 57.3102 86.8566 57.2955 86.1442 57.2938C84.6277 57.2938 83.115 57.3613 81.606 57.4965C80.327 57.6108 79.0508 57.772 77.7859 57.9799C76.9949 58.1098 76.2096 58.2606 75.427 58.4269C75.082 58.5023 74.7342 58.5802 74.3892 58.6608C74.2238 58.7024 74.0555 58.7388 73.89 58.7778C73.2767 58.9753 72.754 58.7154 72.3221 57.9981C72.6979 57.6368 72.1061 57.0833 71.7275 57.4471L71.7303 57.4367Z" fill="#6C63FF"/>
        <path d="M81.8893 68.5289C77.8308 68.3834 73.4468 69.3996 70.7738 72.4274C68.6815 74.795 67.4894 78.8572 69.7052 81.5237C72.0865 84.3825 77.3091 83.8783 80.4589 82.6594C83.791 81.3599 87.4372 78.6804 88.4386 75.3278C89.6867 71.1409 85.6337 67.9754 81.4125 67.9286C80.8712 67.9286 80.8712 68.7083 81.4125 68.7083C83.819 68.7343 86.1807 69.6907 87.3026 71.7672C88.4778 73.9555 87.4653 76.253 85.9002 78.0047C83.3927 80.7934 79.4716 82.8959 75.4775 82.8361C73.0794 82.8024 70.4288 82.0409 69.6856 79.6966C69.0741 77.7968 69.5397 75.7202 70.6056 74.0361C72.9111 70.3976 77.6036 69.1657 81.9061 69.3216C82.4475 69.3398 82.4475 68.5601 81.9061 68.5419L81.8893 68.5289Z" fill="#6C63FF"/>
        <path d="M77.8588 74.3038C77.6857 74.2444 77.4993 74.2265 77.3168 74.2518C77.1343 74.2772 76.9616 74.3448 76.815 74.4486C76.6683 74.5524 76.5523 74.6888 76.4778 74.8453C76.4034 75.0017 76.3728 75.1731 76.3891 75.3434C76.4732 76.357 77.6793 76.6429 78.5852 76.5831C79.3678 76.5207 80.2821 76.253 80.0073 75.346C79.9567 75.1855 79.8694 75.0369 79.7513 74.9105C79.6332 74.784 79.4871 74.6826 79.3229 74.6131C79.0719 74.5208 78.7996 74.4895 78.5319 74.5221C78.4281 74.5221 77.4773 74.8444 77.8812 74.4572L77.2193 74.3766C77.2927 74.4437 77.349 74.5253 77.384 74.6152C77.4189 74.7052 77.4317 74.8013 77.4212 74.8964C77.4225 74.9643 77.4428 75.0308 77.4801 75.0893C77.5174 75.1478 77.5704 75.1963 77.634 75.2301C77.6976 75.2639 77.7696 75.2818 77.8429 75.2821C77.9163 75.2823 77.9884 75.265 78.0523 75.2317C78.1485 75.1943 78.2541 75.1826 78.3571 75.1978C78.4601 75.213 78.5566 75.2545 78.6355 75.3177C78.7145 75.3809 78.7729 75.4632 78.8041 75.5555C78.8354 75.6477 78.8382 75.7462 78.8124 75.8398C78.7898 75.9298 78.8022 76.0244 78.8475 76.1068C78.8928 76.1891 78.968 76.254 79.0598 76.2901C79.1517 76.3261 79.2543 76.331 79.3496 76.3037C79.445 76.2765 79.5269 76.219 79.5809 76.1413C79.8614 75.6735 80.2008 74.7431 79.7801 74.2545C79.4996 73.9244 78.9583 74.0232 78.6217 74.2155C78.4139 74.3517 78.2205 74.5057 78.0439 74.6755C77.7045 74.9536 77.4829 75.0835 77.6091 74.5507C77.8195 73.5813 78.818 72.8095 79.7296 72.4222L79.1125 71.983C78.789 73.1095 78.2106 74.1593 77.4156 75.0627L78.1337 75.3382C78.1133 74.9814 78.2123 74.6274 78.4171 74.3246C78.6219 74.0218 78.9225 73.7849 79.278 73.6463H78.8657L79.0845 73.979C79.0031 74.4702 79.8137 74.6807 79.8951 74.1843C80.0016 73.5424 79.5641 72.7081 78.7535 73.0226C77.7859 73.3968 77.2838 74.4234 77.3034 75.3382C77.3034 75.6501 77.7802 75.8918 78.0243 75.6163C78.9163 74.6122 79.5674 73.4436 79.9343 72.1883C79.9538 72.1138 79.9495 72.0357 79.9219 71.9634C79.8944 71.8912 79.8447 71.8279 79.779 71.7814C79.7133 71.7348 79.6344 71.707 79.5519 71.7012C79.4694 71.6955 79.3869 71.7121 79.3145 71.7491C78.4743 72.101 77.7642 72.674 77.2726 73.3968C76.9304 73.9166 76.5013 74.7275 76.849 75.3252C76.9061 75.4209 76.983 75.5051 77.0753 75.573C77.1677 75.6409 77.2737 75.6912 77.3871 75.7209C77.5006 75.7507 77.6193 75.7592 77.7363 75.7462C77.8534 75.7331 77.9665 75.6987 78.0691 75.6449C78.3285 75.5024 78.5654 75.3275 78.7731 75.1251C78.8769 75.0393 78.9919 74.8912 79.1294 74.8652C79.2528 74.7872 79.2471 74.8314 79.1097 75.003C79.1079 75.2723 79.0232 75.5355 78.8657 75.7618L79.6342 76.0607C79.7035 75.8181 79.6954 75.562 79.6109 75.3235C79.5265 75.085 79.3693 74.8743 79.1584 74.7168C78.9475 74.5593 78.6919 74.4617 78.4224 74.436C78.1529 74.4102 77.8812 74.4573 77.64 74.5715L78.2739 74.9094C78.2872 74.5787 78.175 74.2541 77.9569 73.992C77.9238 73.9414 77.8789 73.8984 77.8255 73.8661C77.7721 73.8338 77.7115 73.813 77.6482 73.8053C77.585 73.7975 77.5206 73.803 77.46 73.8214C77.3993 73.8398 77.3439 73.8705 77.2978 73.9114C76.8715 74.3246 76.7902 75.0393 77.3259 75.4214C77.727 75.7047 77.9233 75.4214 78.3636 75.3564C79.8586 75.1771 78.9863 75.8008 78.459 75.8216C78.2232 75.845 77.9848 75.8292 77.755 75.7748C77.1697 75.5912 77.1333 75.3547 77.6456 75.0653C78.1477 75.255 78.3636 74.5014 77.87 74.3142L77.8588 74.3038Z" fill="#6C63FF"/>
        <path d="M77.1828 75.7281C77.5278 76.7677 76.103 77.1107 75.427 77.4694C74.9527 77.7159 74.539 78.0514 74.2125 78.4544C73.5057 79.3328 73.2421 80.4504 73.0093 81.5029C72.9027 81.9941 73.7133 82.2021 73.8227 81.7109C73.951 80.9374 74.1896 80.1832 74.5323 79.468C75.0371 78.5375 75.7608 78.2257 76.7032 77.7475C77.6456 77.2693 78.3272 76.5286 77.9934 75.5202C77.8364 75.042 77.023 75.2473 77.1828 75.7281Z" fill="#6C63FF"/>
        <path d="M78.5852 75.2057C78.3846 75.2314 78.2015 75.3256 78.0718 75.4698C77.9421 75.614 77.8751 75.7978 77.884 75.9854C77.884 76.2946 78.1056 76.4922 78.2571 76.7391C78.6166 77.2442 78.8909 77.7972 79.0705 78.379C79.2051 78.9378 79.3369 79.9384 79.0228 80.4582C78.4422 81.4224 77.3932 81.2378 76.4985 81.2378C75.657 81.2378 75.0063 81.4977 75.0343 80.4114C75.0512 79.8006 75.5112 79.1821 75.8758 78.7013L75.1073 78.6077C75.2694 79.4013 75.3548 80.2067 75.3625 81.0143C75.3625 81.3756 75.9599 81.5757 76.1451 81.2092C76.596 80.3303 76.9539 79.4129 77.2137 78.47L76.3863 78.366L76.5321 80.3412C76.5345 80.4255 76.5662 80.5068 76.6224 80.5731C76.6786 80.6395 76.7564 80.6872 76.8442 80.7094C76.932 80.7316 77.0252 80.7269 77.1099 80.6962C77.1946 80.6654 77.2664 80.6102 77.3147 80.5387C77.4129 80.4383 77.4849 80.3182 77.525 80.1879C77.5531 80.0657 77.295 79.2418 77.1913 79.5355L78.0159 79.6395L78.0748 77.763L77.2333 77.867C77.4112 78.3961 77.4647 78.9544 77.3904 79.5043C77.3371 79.9384 78.1253 80.0371 78.2318 79.6083L78.7591 77.0873L77.9906 77.1783C78.1732 77.527 78.2236 77.9225 78.1337 78.301C78.072 78.8 78.9134 78.7948 78.9751 78.301C79.0466 77.7835 78.9571 77.2578 78.7171 76.7859C78.6744 76.7208 78.6123 76.6686 78.5382 76.6357C78.4641 76.6028 78.3813 76.5905 78.2999 76.6004C78.2184 76.6104 78.1419 76.642 78.0795 76.6915C78.0171 76.7411 77.9716 76.8063 77.9486 76.8794L77.4184 79.4004L78.2459 79.5043C78.33 78.8848 78.2658 78.2557 78.0579 77.6617C78.0298 77.5722 77.9681 77.495 77.8838 77.4441C77.7995 77.3931 77.6984 77.3719 77.5986 77.3841C77.4989 77.3964 77.4072 77.4414 77.3402 77.5109C77.2732 77.5804 77.2353 77.6699 77.2333 77.763L77.1744 79.6395C77.1744 80.0943 77.856 80.1593 78.0018 79.7434L78.0467 79.6161C78.0661 79.5497 78.0665 79.4798 78.0478 79.4133C78.0291 79.3467 77.992 79.2858 77.9401 79.2367C77.0678 78.3582 76.8911 79.7564 76.5882 80.1437L77.3736 80.3412L77.2277 78.366C77.1969 77.945 76.5237 77.815 76.4003 78.262C76.1632 79.1411 75.8345 79.9967 75.4186 80.8168L76.204 81.0143C76.1949 80.1368 76.101 79.2618 75.9235 78.3998C75.8506 78.0411 75.3429 78.0567 75.155 78.3062C74.594 79.0547 73.6235 80.6895 74.3724 81.5861C75.0259 82.3658 77.0819 82.0643 77.9598 82.0149C79.3453 81.9422 79.8474 81.1287 79.9989 79.9176C80.071 79.3376 80.0359 78.7505 79.8951 78.1815C79.8194 77.8748 79.0537 75.9308 78.8237 75.9698C79.3566 75.8788 79.1294 75.1251 78.5993 75.2161L78.5852 75.2057Z" fill="#6C63FF"/>
        <path d="M76.9556 76.9573L74.6585 79.7668L75.3849 80.1592L77.0678 77.9033L76.2993 77.6019L75.4607 80.5673C75.4381 80.6573 75.4505 80.7518 75.4958 80.8342C75.541 80.9166 75.6162 80.9815 75.7081 81.0175C75.7999 81.0536 75.9026 81.0584 75.9979 81.0312C76.0932 81.004 76.1752 80.9464 76.2292 80.8687C76.6108 80.2828 77.0393 79.7242 77.511 79.1976L76.8098 78.8182C76.6215 79.4896 76.2584 80.108 75.7524 80.6192L76.4564 80.9987C76.4995 80.6396 76.6026 80.2888 76.7621 79.9591C76.9781 79.5095 76.2937 79.1119 76.0357 79.5641C75.7983 79.976 75.5274 80.3704 75.2251 80.744L75.9936 80.8375L76.1647 80.0968L75.3962 80.0033L75.5196 80.653C75.5398 80.7184 75.5781 80.7778 75.6306 80.8253C75.683 80.8729 75.748 80.907 75.8189 80.9242C75.8899 80.9415 75.9646 80.9415 76.0355 80.924C76.1064 80.9065 76.1712 80.8722 76.2236 80.8245C76.935 80.1424 77.5054 79.3452 77.9065 78.4725H77.1828C77.3731 78.7975 77.5066 79.1484 77.5783 79.5121C77.6793 79.9799 78.3496 79.8058 78.4029 79.4081C78.5234 78.5376 78.5852 77.6609 78.588 76.7832H77.7466V78.4179C77.7466 78.8416 78.4955 78.9663 78.574 78.5219C78.6296 78.1276 78.7698 77.7476 78.9863 77.4043H78.2487C78.4264 77.6701 78.5234 77.9754 78.5291 78.288C78.5291 78.3914 78.5735 78.4905 78.6524 78.5636C78.7313 78.6367 78.8383 78.6778 78.9499 78.6778C79.0614 78.6778 79.1685 78.6367 79.2474 78.5636C79.3263 78.4905 79.3706 78.3914 79.3706 78.288L79.4772 77.7682H78.6666C78.7479 78.2282 79.0564 80.8193 77.9598 80.5153C77.7746 80.4737 77.7214 80.4841 77.7999 80.5439L78.0495 80.0501L78.6357 78.8987L77.8504 78.7012C77.9009 79.2366 77.9542 80.0007 77.6064 80.4581C77.3259 80.8297 76.462 80.9779 76.0216 80.7596C75.7309 80.5675 75.4825 80.3258 75.2896 80.0475L74.7146 80.5673C75.1802 80.8817 75.9347 81.6536 76.5349 81.6978C76.9921 81.7316 77.3764 81.3807 77.6765 81.1C78.1368 80.6592 78.4958 80.1364 78.7315 79.5632C78.9673 78.9901 79.075 78.3785 79.048 77.7656C79.048 77.6622 79.0037 77.563 78.9248 77.4899C78.8459 77.4168 78.7389 77.3758 78.6273 77.3758C78.5157 77.3758 78.4087 77.4168 78.3298 77.4899C78.2509 77.563 78.2066 77.6622 78.2066 77.7656V78.6544C78.2066 78.7578 78.2509 78.857 78.3298 78.9301C78.4087 79.0032 78.5157 79.0443 78.6273 79.0443C78.7389 79.0443 78.8459 79.0032 78.9248 78.9301C79.0037 78.857 79.048 78.7578 79.048 78.6544V76.4739C79.048 76.3705 79.0037 76.2714 78.9248 76.1983C78.8459 76.1252 78.7389 76.0841 78.6273 76.0841C78.5157 76.0841 78.4087 76.1252 78.3298 76.1983C78.2509 76.2714 78.2066 76.3705 78.2066 76.4739C78.2051 76.9966 78.1563 77.5182 78.0607 78.0333L78.8882 78.1372C78.8223 77.5163 78.7914 76.8926 78.7956 76.2686C78.7943 76.1752 78.7568 76.0853 78.69 76.0154C78.6232 75.9454 78.5315 75.9 78.4316 75.8874C78.3317 75.8748 78.2303 75.8959 78.1457 75.9468C78.0612 75.9976 77.9992 76.075 77.971 76.1646C77.8448 76.661 77.6905 77.1496 77.5418 77.6356L78.3104 77.5421L78.2515 77.3342C78.2122 76.8378 77.3708 76.8352 77.41 77.3342C77.4193 77.5446 77.4786 77.7505 77.5839 77.9371C77.7466 78.2542 78.2543 78.1424 78.3524 77.8436C78.5123 77.355 78.6554 76.8664 78.7816 76.3726L77.9542 76.2686C77.9499 76.8926 77.9808 77.5163 78.0467 78.1372C78.0888 78.5375 78.7844 78.709 78.8713 78.2412C78.9834 77.6542 79.0425 77.0596 79.048 76.4635H78.2066V78.644H79.048V77.7552H78.2066C78.2561 78.7356 77.8885 79.6949 77.1828 80.4269C77.0735 80.5421 76.9554 80.6498 76.8294 80.7492C76.6303 80.9259 76.448 80.8999 76.2881 80.6686C75.8898 80.5153 75.4775 80.1202 75.1297 79.8889C74.7819 79.6576 74.3051 80.115 74.5519 80.4217C75.197 81.217 76.1591 82.1032 77.3567 81.7212C78.6161 81.308 78.7872 79.7278 78.6918 78.6882C78.661 78.3426 78.1028 78.1087 77.9093 78.4933C77.6288 79.0417 77.3483 79.5875 77.0678 80.1384C76.9697 80.3308 76.7874 80.5958 76.8154 80.8245C76.908 81.4093 77.6737 81.3131 78.1449 81.2794C79.9708 81.152 79.6819 78.7532 79.4716 77.5473C79.4014 77.1471 78.7732 77.2094 78.661 77.5473C78.5718 77.7847 78.5254 78.034 78.5235 78.2854H79.365C79.3345 77.8385 79.1995 77.4031 78.9695 77.0093C78.9319 76.9512 78.8786 76.9031 78.815 76.8697C78.7513 76.8363 78.6794 76.8187 78.6063 76.8187C78.5331 76.8187 78.4612 76.8363 78.3976 76.8697C78.3339 76.9031 78.2807 76.9512 78.2431 77.0093C77.9922 77.4105 77.823 77.851 77.7438 78.3088L78.5852 78.4127V76.778C78.5852 76.6746 78.5409 76.5755 78.462 76.5023C78.3831 76.4292 78.2761 76.3882 78.1645 76.3882C78.0529 76.3882 77.9459 76.4292 77.867 76.5023C77.7881 76.5755 77.7438 76.6746 77.7438 76.778C77.741 77.6557 77.6792 78.5324 77.5587 79.4029L78.3861 79.299C78.2909 78.8741 78.1293 78.4643 77.9065 78.0827C77.8688 78.0245 77.8156 77.9764 77.752 77.943C77.6883 77.9096 77.6164 77.8921 77.5433 77.8921C77.4701 77.8921 77.3982 77.9096 77.3345 77.943C77.2709 77.9764 77.2176 78.0245 77.18 78.0827C76.8142 78.8966 76.2883 79.6404 75.629 80.2762L76.333 80.4477L76.2096 79.798C76.145 79.4523 75.6177 79.4419 75.441 79.7044C75.3016 79.8998 75.2071 80.1197 75.1632 80.3504C75.1192 80.5811 75.127 80.8176 75.1858 81.0455C75.2559 81.4145 75.7608 81.3755 75.9543 81.139C76.2566 80.7664 76.5276 80.3728 76.7649 79.9617L76.0385 79.5667C75.8445 79.955 75.7122 80.3673 75.6458 80.7908C75.5953 81.1338 76.0357 81.4925 76.3498 81.1702C76.9528 80.5589 77.3894 79.8228 77.6232 79.0235C77.727 78.67 77.1997 78.3348 76.9192 78.644C76.4032 79.217 75.9344 79.8252 75.5168 80.4633L76.2853 80.7648L77.1408 77.8098C77.1634 77.7198 77.1509 77.6252 77.1057 77.5428C77.0604 77.4605 76.9852 77.3955 76.8934 77.3595C76.8015 77.3235 76.6988 77.3186 76.6035 77.3459C76.5082 77.3731 76.4263 77.4306 76.3722 77.5083L74.6893 79.7668C74.3752 80.1852 75.0961 80.5465 75.4158 80.1592L77.7045 77.3524C78.0299 76.9521 77.3006 76.5727 76.9781 76.9573H76.9556Z" fill="#6C63FF"/>
        <path d="M112.739 86.3369C116.105 84.4293 118.781 81.5835 121.754 79.2028C124.98 76.6221 128.365 74.218 131.851 71.9414C138.622 67.5232 145.732 63.5702 152.837 59.6276C152.929 59.5736 152.995 59.4886 153.021 59.3906C153.047 59.2925 153.03 59.189 152.976 59.1018C152.921 59.0145 152.831 58.9505 152.727 58.923C152.622 58.8955 152.51 58.9068 152.413 58.9544C145.309 62.897 138.196 66.8422 131.425 71.2682C128.23 73.3474 125.111 75.5513 122.122 77.8904C118.868 80.4373 115.971 83.608 112.305 85.6638C111.842 85.9237 112.265 86.5994 112.728 86.3369H112.739Z" fill="#6C63FF"/>
        <path d="M163.7 47.5217C160.054 47.8648 156.127 48.725 153.883 51.68C151.945 54.2218 151.987 58.6556 153.807 61.2649C155.875 64.2303 160.099 64.3369 163.38 63.3779C166.662 62.4189 170.059 60.7373 170.028 57.104C170.011 55.1548 169.251 53.125 168.412 51.3578C167.689 49.8322 166.407 48.4989 164.466 48.6679C163.93 48.7146 163.924 49.4943 164.466 49.4475C167.066 49.224 167.902 52.0855 168.519 53.8917C169.08 55.5784 169.599 57.5744 168.718 59.2508C167.837 60.9271 165.714 61.7821 163.899 62.3955C161.936 63.0556 159.779 63.4584 157.729 62.9153C153.667 61.8627 152.545 57.0936 153.715 53.7098C155.061 49.8114 159.829 48.6653 163.714 48.3014C164.247 48.252 164.253 47.4723 163.714 47.5217H163.7Z" fill="#6C63FF"/>
        <path d="M169.31 77.6695C165.663 78.0125 161.737 78.8728 159.493 81.8278C157.555 84.3696 157.597 88.8034 159.417 91.4127C161.484 94.3781 165.708 94.4846 168.99 93.5256C172.272 92.5666 175.668 90.8851 175.637 87.2518C175.621 85.3026 174.86 83.2728 174.022 81.5055C173.298 79.9799 172.016 78.6467 170.075 78.8156C169.54 78.8624 169.534 79.6421 170.075 79.5953C172.675 79.3718 173.511 82.2332 174.128 84.0395C174.689 85.7262 175.208 87.7222 174.328 89.3985C173.447 91.0748 171.324 91.9299 169.509 92.5432C167.545 93.2034 165.389 93.6062 163.338 93.063C159.277 92.0104 158.155 87.2414 159.325 83.8576C160.671 79.9592 165.439 78.813 169.324 78.4492C169.857 78.3998 169.862 77.6201 169.324 77.6695H169.31Z" fill="#6C63FF"/>
        <path d="M158.2 55.1132L160.856 57.9201C160.909 57.9671 160.973 58.0007 161.044 58.0176C161.115 58.0346 161.189 58.0343 161.26 58.0167C161.33 57.9992 161.395 57.9651 161.447 57.9176C161.499 57.8702 161.537 57.811 161.557 57.7459C162.118 56.3789 162.012 54.9625 162.143 53.5253C162.289 52.0398 162.691 50.5857 163.335 49.2188C164.629 46.4463 166.824 44.1163 169.613 42.5525C170.075 42.2926 169.652 41.6169 169.189 41.8794C166.439 43.4138 164.233 45.6595 162.842 48.3404C162.161 49.6449 161.688 51.0343 161.439 52.4649C161.159 54.1516 161.414 55.9189 160.741 57.538L161.445 57.3639L158.803 54.5622C158.444 54.1854 157.852 54.739 158.208 55.1132H158.2Z" fill="#6C63FF"/>
        <path d="M114.094 89.3751C128.561 88.9662 143.032 88.8795 157.507 89.1152C158.048 89.1152 158.048 88.3355 157.507 88.3355C143.036 88.0964 128.565 88.183 114.094 88.5954C113.553 88.611 113.55 89.3907 114.094 89.3751Z" fill="#6C63FF"/>
        <path d="M160.531 81.6874C165.476 83.486 170.233 85.7009 174.743 88.3043C175.203 88.5642 175.626 87.8963 175.166 87.6312C170.598 84.9956 165.777 82.7546 160.766 80.9363C160.264 80.7518 160.045 81.5055 160.545 81.6874H160.531Z" fill="#6C63FF"/>
        <path d="M169.512 78.1555C164.497 83.5728 161.591 90.3945 161.263 97.5254C161.24 98.027 162.082 98.027 162.104 97.5254C162.423 90.5993 165.241 83.9725 170.106 78.7065C170.457 78.327 169.865 77.7734 169.512 78.1555Z" fill="#6C63FF"/>
        <path d="M57.3332 86.5448L88.6826 86.1654L92.2867 86.1212C92.9347 86.1212 93.5826 86.1004 94.2305 86.0978C95.142 86.0978 95.7563 86.7995 95.7395 87.6572C95.6974 89.4764 94.4633 89.4115 92.8477 89.4764L88.9518 89.6402L73.0878 90.2873C70.2465 90.4043 67.4024 90.5472 64.5612 90.6382C61.9976 90.7109 57.1228 89.9365 58.2616 86.4799C58.4186 85.9991 57.608 85.7937 57.4482 86.2719C56.8872 87.9717 57.8801 89.6974 59.4789 90.5888C61.7479 91.8519 64.7379 91.4231 67.2426 91.3191L86.7192 90.5004L91.4481 90.3055C92.6598 90.2535 94.3455 90.4822 95.459 89.9599C96.766 89.3491 96.996 86.9243 96.1714 85.9029C95.7479 85.3831 95.1533 85.3363 94.4885 85.3129C92.7439 85.2506 90.9685 85.3571 89.2211 85.3779L79.5108 85.4975L57.322 85.7573C56.7806 85.7573 56.7806 86.537 57.322 86.537L57.3332 86.5448Z" fill="#6C63FF"/>
        <path d="M183.993 182.056C183.286 182.467 182.478 182.698 181.749 183.059C181.02 183.42 180.31 183.964 180.103 184.712C180.025 184.944 180.038 185.195 180.139 185.419C180.321 185.69 180.598 185.894 180.924 185.996C182.406 186.606 184.006 186.929 185.627 186.946C187.248 186.963 188.855 186.673 190.351 186.095C190.878 185.86 191.421 185.661 191.978 185.497C192.664 185.367 193.362 185.301 194.062 185.3C194.798 185.26 195.53 185.173 196.253 185.04C196.616 185.002 196.96 184.87 197.246 184.658C197.506 184.38 197.662 184.032 197.692 183.665C198.024 181.64 197.523 179.574 196.289 177.874C196.134 177.636 195.925 177.432 195.678 177.274C195.376 177.129 195.044 177.047 194.704 177.032C193.302 176.874 191.832 176.583 190.416 176.551C189.401 176.531 188.89 176.978 188.172 177.625C186.688 179 185.822 180.998 183.993 182.056Z" fill="#323444"/>
        <path d="M204.662 181.864C204.662 183.137 204.827 184.486 205.66 185.502C206.041 185.942 206.502 186.316 207.023 186.607C208.785 187.646 211.118 188.028 212.975 187.147C213.275 187.023 213.531 186.823 213.715 186.57C213.996 186.118 213.847 185.554 213.69 185.055L211.003 176.427C209.267 176.674 206.715 176.848 205.172 177.664C204.053 178.254 204.662 180.725 204.662 181.864Z" fill="#323444"/>
        <path d="M182.417 128.733C182.254 129.209 181.665 129.43 181.342 129.83C180.964 130.301 181.003 130.953 181.14 131.525C181.31 132.368 181.738 133.148 182.372 133.773C182.694 134.082 183.091 134.316 183.53 134.454C183.969 134.593 184.437 134.632 184.896 134.568C185.799 134.41 186.579 133.669 186.61 132.819C186.593 132.433 186.504 132.052 186.346 131.694L184.433 126.569C184.425 126.532 184.409 126.498 184.386 126.468C184.363 126.438 184.333 126.413 184.299 126.394C184.226 126.38 184.151 126.392 184.088 126.428C183.637 126.626 182.731 126.834 182.467 127.268C182.203 127.702 182.607 128.263 182.417 128.733Z" fill="#FBB3B2"/>
        <path d="M181.522 128.476C182.22 128.375 182.832 127.995 183.485 127.746C184.139 127.496 184.958 127.4 185.507 127.816C185.665 127.936 185.816 128.099 186.021 128.097C185.742 126.826 185.321 125.586 184.764 124.396C184.745 124.339 184.706 124.289 184.655 124.253C184.578 124.224 184.493 124.224 184.416 124.253L182.529 124.71C181.83 124.879 181.749 124.827 181.802 125.464C181.816 125.747 181.973 128.476 181.522 128.476Z" fill="#323444"/>
        <path d="M181.314 91.4673C181.034 91.8675 181.034 92.3665 181.034 92.8369C181.034 95.137 181.059 97.45 181.426 99.7267C181.513 100.272 181.623 100.818 181.679 101.369C181.743 102.136 181.756 102.906 181.718 103.674L181.438 113.68C181.404 114.905 181.337 116.22 180.521 117.181C180.273 117.504 180.157 117.897 180.192 118.291C180.406 120.802 180.854 123.291 181.3 125.773C182.018 125.473 182.803 125.335 183.59 125.37C184.377 125.404 185.143 125.611 185.827 125.973C187.242 121.85 188.025 117.564 188.152 113.239C188.217 111.11 188.119 108.969 188.472 106.866C189.064 103.326 188.823 99.6955 188.388 96.135C188.251 95.007 187.959 93.8453 187.179 92.972C186.441 92.208 185.458 91.6833 184.374 91.475C183.337 91.223 182.408 91.4828 181.314 91.4673Z" fill="#5B5583"/>
        <path opacity="0.1" d="M181.314 91.4673C181.034 91.8675 181.034 92.3665 181.034 92.8369C181.034 95.137 181.059 97.45 181.426 99.7267C181.513 100.272 181.623 100.818 181.679 101.369C181.743 102.136 181.756 102.906 181.718 103.674L181.438 113.68C181.404 114.905 181.337 116.22 180.521 117.181C180.273 117.504 180.157 117.897 180.192 118.291C180.406 120.802 180.854 123.291 181.3 125.773C182.018 125.473 182.803 125.335 183.59 125.37C184.377 125.404 185.143 125.611 185.827 125.973C187.242 121.85 188.025 117.564 188.152 113.239C188.217 111.11 188.119 108.969 188.472 106.866C189.064 103.326 188.823 99.6955 188.388 96.135C188.251 95.007 187.959 93.8453 187.179 92.972C186.441 92.208 185.458 91.6833 184.374 91.475C183.337 91.223 182.408 91.4828 181.314 91.4673Z" fill="black"/>
        <path d="M184.742 120.484C182.861 129.417 183.888 138.666 187.692 147.056C188.021 147.677 188.252 148.339 188.377 149.021C188.531 150.294 187.897 151.518 187.535 152.75C186.694 155.552 187.179 158.536 187.718 161.402C187.942 162.598 188.173 163.792 188.41 164.986C188.643 166.151 188.868 167.416 188.284 168.471C188.786 170.41 189.084 172.331 189.586 174.27C189.639 174.423 189.655 174.585 189.633 174.745C189.532 174.999 189.354 175.22 189.12 175.382C188.746 175.734 188.477 176.169 188.34 176.646C188.203 177.124 188.202 177.626 188.338 178.103C189.619 177.251 191.406 177.549 192.87 178.103C194.334 178.657 195.776 179.403 197.358 179.403C197.128 177.682 196.906 175.876 197.591 174.262C197.989 173.326 198.69 172.443 198.67 171.442C198.651 170.545 198.059 169.745 197.916 168.859C197.863 168.307 197.885 167.752 197.983 167.206C198.359 164.025 197.933 160.812 197.506 157.636C197.458 157.01 197.299 156.395 197.035 155.817C196.836 155.443 196.539 155.084 196.544 154.666C196.544 154.18 196.968 153.785 197.125 153.322C197.406 152.47 196.889 151.311 197.666 150.783C199.714 149.39 198.929 146.063 198.884 143.711C198.848 141.682 198.755 139.655 198.603 137.63C199.892 140.988 200.419 144.558 200.151 148.114C200.062 149.278 199.896 150.502 200.387 151.578C200.763 152.405 201.509 153.086 201.711 153.961C201.837 154.502 201.747 155.061 201.775 155.612C201.803 156.163 202.005 156.763 202.519 157.041C202.558 159.547 202.799 162.226 202.841 164.731C202.814 166.012 202.927 167.292 203.178 168.552C203.304 168.953 203.373 169.367 203.385 169.784C203.322 170.307 203.173 170.818 202.942 171.299C202.453 172.64 202.326 174.072 202.57 175.469C202.814 176.866 203.424 178.187 204.345 179.317C205.007 178.228 206.387 177.651 207.733 177.56C209.079 177.469 210.409 177.783 211.713 178.1C211.513 176.582 211.84 175.044 212.644 173.708C212.86 173.407 213.025 173.078 213.135 172.731C213.286 172.071 212.933 171.413 212.742 170.761C212.431 169.721 212.54 168.601 212.613 167.515C212.858 163.877 212.684 160.224 212.094 156.62C212.003 155.91 211.823 155.213 211.559 154.541C211.458 154.302 211.334 154.073 211.25 153.832C211.118 153.398 211.042 152.951 211.026 152.501L210.703 148.343C210.476 145.429 211.508 142.552 212.229 139.709C212.551 138.435 212.902 137.164 213.118 135.87C213.413 134.108 213.46 132.307 213.892 130.568C214.279 129.009 214.978 127.489 215.123 125.89C215.348 123.413 214.237 121.02 213.16 118.748C212.711 117.813 211.014 117.906 209.923 117.74C202.185 116.563 194.034 116.555 186.736 119.208C185.981 119.498 185.302 119.933 184.742 120.484Z" fill="#3C354C"/>
        <path d="M190.321 74.3558L191.179 77.4485C191.412 78.1578 191.541 78.893 191.563 79.6343C191.572 79.9046 191.507 80.1727 191.375 80.4139C191.234 80.612 191.053 80.7832 190.842 80.9181C190.256 81.3314 189.849 82.2956 189.179 82.5815C189.524 83.1376 190.001 82.7764 190.623 83.0545C191.72 83.5483 192.724 84.2578 193.914 84.5021C195.035 84.7308 196.213 84.5151 197.327 84.2422C198.906 83.8446 200.477 83.2962 201.747 82.3372C203.018 81.3781 203.742 80.5309 203.736 79.0157C202.334 79.169 201.085 77.8566 200.466 76.6767C200.251 76.2281 200.093 75.7581 199.994 75.2758L199.243 72.2117C198.424 72.378 197.756 72.9212 196.974 73.2045C196.191 73.4878 195.265 73.5137 194.396 73.5501C192.853 73.6152 191.318 73.7995 189.807 74.1011C189.6 74.1401 189.339 74.2622 189.389 74.4494" fill="#FBB3B2"/>
        <path opacity="0.1" d="M190.321 74.3558L191.179 77.4485C191.412 78.1578 191.541 78.893 191.563 79.6343C191.572 79.9046 191.507 80.1727 191.375 80.4139C191.234 80.612 191.053 80.7832 190.842 80.9181C190.256 81.3314 189.849 82.2956 189.179 82.5815C189.524 83.1376 190.001 82.7764 190.623 83.0545C191.72 83.5483 192.724 84.2578 193.914 84.5021C195.035 84.7308 196.213 84.5151 197.327 84.2422C198.906 83.8446 200.477 83.2962 201.747 82.3372C203.018 81.3781 203.742 80.5309 203.736 79.0157C202.334 79.169 201.085 77.8566 200.466 76.6767C200.251 76.2281 200.093 75.7581 199.994 75.2758L199.243 72.2117C198.424 72.378 197.756 72.9212 196.974 73.2045C196.191 73.4878 195.265 73.5137 194.396 73.5501C192.853 73.6152 191.318 73.7995 189.807 74.1011C189.6 74.1401 189.339 74.2622 189.389 74.4494" fill="black"/>
        <path d="M194.006 76.0607C198.108 76.0607 201.433 72.9795 201.433 69.1787C201.433 65.3779 198.108 62.2967 194.006 62.2967C189.904 62.2967 186.579 65.3779 186.579 69.1787C186.579 72.9795 189.904 76.0607 194.006 76.0607Z" fill="#FBB3B2"/>
        <path d="M196.051 80.5231C196.448 79.7282 197.021 79.0198 197.734 78.4439C198.78 77.5941 200.21 76.9054 200.457 75.6371L202.723 78.0827C202.847 78.1961 202.942 78.3326 203.004 78.4829C203.032 78.624 203.028 78.769 202.991 78.9084C202.955 79.0478 202.886 79.1783 202.791 79.2912C202.23 80.1203 201.346 80.7128 200.51 81.3132C198.595 82.7193 196.761 84.2184 195.016 85.8042C194.939 85.8869 194.836 85.9451 194.721 85.9705C194.613 85.9733 194.506 85.9451 194.416 85.8899C192.91 85.1575 191.578 84.1537 190.497 82.9375C190.416 82.8466 190.315 82.7426 190.183 82.7504C190.104 82.7639 190.03 82.7992 189.973 82.8518C189.218 83.4235 188.394 84.1071 187.426 84.0187C188.68 83.1844 189.389 81.7914 189.653 80.3802C189.705 79.8972 189.812 79.4206 189.973 78.9585C190.056 78.7274 190.199 78.5187 190.39 78.351C190.581 78.1833 190.813 78.0617 191.067 77.9969C190.455 78.8624 190.873 80.0891 191.695 80.7882C192.493 81.4162 193.451 81.8463 194.477 82.0383C195.431 82.2046 195.711 81.204 196.051 80.5231Z" fill="#323444"/>
        <path d="M186.388 121.191C187.446 121.433 188.447 121.844 189.473 122.148C191.344 122.691 193.314 122.882 195.265 122.712C195.866 122.7 196.45 122.527 196.948 122.215C197.08 122.117 197.201 122 197.341 121.909C197.576 121.778 197.83 121.681 198.095 121.62C200.668 120.874 202.822 119.266 204.911 117.691C204.979 117.639 205.054 117.574 205.049 117.491C205.039 117.434 205.009 117.382 204.964 117.342L203.865 116.173C200.982 116.628 198.028 116.456 195.103 116.389C194.502 116.364 193.9 116.379 193.302 116.433C192.724 116.495 192.155 116.63 191.586 116.745C189.423 117.181 187.213 117.348 185.022 117.633C184.869 117.644 184.72 117.687 184.588 117.758C184.495 117.824 184.416 117.905 184.355 117.997L183.586 118.998C183.288 119.334 183.068 119.725 182.941 120.144C182.762 120.924 183.137 121.184 183.853 121.082C184.698 120.968 185.558 121.005 186.388 121.191Z" fill="#323444"/>
        <path d="M194.985 84.6138C194.127 83.7992 193.154 83.0954 192.093 82.5217C191.665 82.2694 191.189 82.0931 190.691 82.0019C190.44 81.9561 190.182 81.9616 189.934 82.0182C189.685 82.0748 189.454 82.181 189.255 82.3294C189.005 82.5347 188.848 82.8206 188.607 83.0363C188.303 83.2726 187.955 83.455 187.58 83.5743C186.303 84.0798 185.093 84.7189 183.973 85.4793C183.363 85.875 182.813 86.3454 182.338 86.8775C181.067 88.3849 180.877 90.4355 180.91 92.3483C180.936 93.679 182.313 94.6666 183.261 95.662C184.15 96.6415 184.955 97.6843 185.667 98.7807C186.178 99.5292 186.711 100.34 186.646 101.231C186.593 101.962 186.133 102.648 186.206 103.376C186.231 103.636 186.321 103.875 186.346 104.127C186.397 104.647 186.175 105.166 186.119 105.686C186.043 106.422 186.301 107.152 186.315 107.893C186.305 108.4 186.235 108.904 186.108 109.397C185.569 111.773 184.893 114.161 185.031 116.586L183.477 116.846C183.624 116.98 183.735 117.144 183.801 117.324C183.867 117.505 183.887 117.698 183.857 117.887C183.828 118.076 183.751 118.256 183.633 118.413C183.515 118.569 183.358 118.697 183.177 118.787C185.603 119.538 188.225 119.159 190.797 119.156C192.926 119.156 195.047 119.416 197.173 119.38C199.299 119.344 201.492 118.987 203.245 117.873C203.722 117.571 204.159 117.218 204.662 116.955C205.334 116.632 206.059 116.413 206.807 116.305C208.194 116.06 209.603 115.944 211.014 115.957C211.704 115.957 212.456 115.983 213.006 115.598C213.612 115.172 213.766 114.4 213.847 113.701C213.929 112.963 213.979 112.222 213.993 111.482C214.017 110.905 213.984 110.327 213.895 109.756C213.811 109.338 213.701 108.925 213.567 108.519L212.509 105.068C212.072 103.643 212.681 102.081 212.81 100.605C212.84 100.257 212.846 99.8514 212.557 99.6279C212.453 99.5474 212.31 99.4928 212.277 99.368C212.262 99.3088 212.26 99.2473 212.271 99.1874C212.283 99.1275 212.308 99.0705 212.344 99.0198C212.905 97.9802 213.746 97.0628 214.515 96.1246C215.806 94.4789 217.004 92.7725 218.105 91.0124C217.76 87.3293 216.086 83.8612 213.354 81.1676C212.793 80.6037 212.15 80.0631 211.365 79.8084C210.852 79.6632 210.32 79.5836 209.783 79.5719C207.584 79.4342 205.295 79.312 203.38 78.288C203.242 78.1998 203.087 78.1387 202.923 78.1087C202.499 78.0645 202.191 78.4518 201.916 78.7584C201.209 79.5381 200.168 79.9851 199.254 80.5595C197.549 81.6329 196.216 83.1091 194.985 84.6138Z" fill="#5B5583"/>
        <path d="M218.296 92.0754C218.733 93.3593 218.691 94.7315 218.834 96.07C218.919 96.8777 219.072 97.678 219.291 98.4636C219.392 98.8954 219.572 99.3078 219.824 99.6825C220.077 100.026 220.439 100.304 220.599 100.691C220.686 100.953 220.725 101.227 220.714 101.502L220.747 103.295C220.819 104.245 220.663 105.199 220.29 106.086L219.081 109.494C218.428 111.339 217.757 113.213 216.579 114.819C216.413 115.091 216.162 115.309 215.858 115.445C215.621 115.503 215.377 115.538 215.132 115.549C214.704 115.62 214.317 115.826 214.036 116.133C213.755 116.44 213.598 116.828 213.592 117.231C213.311 116.851 212.961 116.519 212.557 116.251L210.097 114.432C209.256 113.797 208.378 113.153 207.357 112.786C208.73 112.389 209.949 111.631 210.866 110.604C211.783 109.577 212.359 108.325 212.523 107.001C212.523 106.607 212.618 106.218 212.804 105.863C213.009 105.556 213.387 105.322 213.415 104.961C213.449 104.506 212.894 104.163 212.894 103.708C212.894 103.407 213.135 103.157 213.242 102.874C213.341 102.524 213.341 102.156 213.242 101.806L212.902 100.059C212.882 99.8844 212.825 99.7148 212.734 99.5604C212.607 99.4123 212.466 99.2749 212.313 99.1497C211.73 98.5442 211.988 97.5904 212.313 96.8445C213.06 95.1888 214.023 93.6239 215.18 92.1846C215.591 91.7012 215.973 91.1962 216.321 90.672C216.618 90.1938 216.686 89.531 217 89.1126C217.404 90.095 217.951 91.0644 218.296 92.0754Z" fill="#5B5583"/>
        <path d="M207.27 112.893C207.145 112.979 207.037 113.085 206.95 113.205C206.62 113.589 206.18 113.88 205.68 114.044C205.96 114.231 206.215 114.416 206.479 114.606C208.43 116.002 210.216 117.584 211.808 119.328C211.985 118.743 213.042 118.785 213.3 118.226C213.361 118.066 213.38 117.895 213.356 117.727C213.303 116.851 213.168 115.982 212.953 115.128C212.868 114.688 212.676 114.272 212.392 113.912C211.999 113.472 211.387 113.262 210.804 113.08C209.921 112.794 208.168 112.391 207.27 112.893Z" fill="#323444"/>
        <path d="M203.764 114.936C202.923 115.513 202.185 116.235 201.24 116.63C200.572 116.911 199.812 117.033 199.229 117.452C199.546 118.099 200.37 118.434 201.136 118.408C201.902 118.338 202.637 118.089 203.27 117.683C203.772 117.397 204.361 117.064 204.908 117.264C204.993 117.659 204.628 118.031 204.628 118.431C204.628 118.832 204.987 119.123 205.34 119.333C207.023 120.339 209.189 120.256 211.194 120.139C211.309 120.143 211.422 120.112 211.517 120.05C211.56 120.003 211.593 119.949 211.614 119.89C211.634 119.831 211.642 119.769 211.637 119.707C211.662 119.297 211.674 118.889 211.676 118.478C211.733 118.147 211.687 117.808 211.543 117.5C211.399 117.193 211.163 116.93 210.863 116.742C209.775 115.875 208.601 115.105 207.357 114.442C206.123 113.779 204.872 114.172 203.764 114.936Z" fill="#FBB3B2"/>
        <path d="M196.615 66.3017C195.369 66.4394 194.463 67.3413 194.589 68.3211C194.716 69.3009 195.826 69.9766 197.072 69.8362C198.317 69.6959 199.223 68.7967 199.097 67.8195C198.971 66.8423 197.86 66.164 196.615 66.3017ZM197.038 69.566C195.983 69.6829 195.044 69.1086 194.934 68.2821C194.825 67.4556 195.596 66.6915 196.648 66.5746C197.7 66.4576 198.642 67.032 198.752 67.8585C198.861 68.6849 198.09 69.449 197.038 69.566Z" fill="#3C354C"/>
        <path d="M190.545 66.9774C189.3 67.1151 188.394 68.017 188.52 68.9942C188.646 69.9714 189.757 70.6497 191.002 70.512C192.247 70.3742 193.153 69.4724 193.027 68.4926C192.901 67.5128 191.79 66.8397 190.545 66.9774ZM190.968 70.2391C189.914 70.356 188.974 69.7817 188.868 68.9578C188.761 68.1339 189.527 67.3672 190.581 67.2477C191.636 67.1281 192.576 67.7051 192.682 68.5316C192.789 69.358 192.02 70.1221 190.968 70.2391Z" fill="#3C354C"/>
        <path d="M186.038 67.4789L188.744 68.0143L188.478 68.6745L185.925 67.9805L186.038 67.4789Z" fill="#3C354C"/>
        <path d="M201.125 65.8001L198.628 66.9151L199.058 67.4972L201.36 66.2627L201.125 65.8001Z" fill="#3C354C"/>
        <path d="M192.778 67.848L194.676 67.6375L194.578 68.0741L192.949 68.1755L192.778 67.848Z" fill="#3C354C"/>
        <path d="M189.095 67.2581C189.274 66.902 189.369 66.515 189.375 66.1223C189.382 65.8873 189.425 65.6545 189.504 65.431C189.642 65.1472 189.852 64.8985 190.116 64.7059C190.991 64.0198 192.245 63.6663 193.482 63.617C194.83 63.5595 196.172 63.8282 197.375 64.3966C197.742 64.5561 198.071 64.7824 198.342 65.062C198.735 65.5064 198.819 66.0808 199.215 66.52C199.485 66.7865 199.824 66.9839 200.2 67.0932C200.577 67.2025 200.977 67.2199 201.363 67.1437C201.501 66.6915 201.321 66.2133 201.391 65.7507C201.502 65.3543 201.651 64.968 201.837 64.5968C202.272 63.409 201.638 62.0316 200.331 61.3221C199.874 61.0622 199.332 60.8933 198.99 60.5424C198.648 60.1915 198.567 59.8277 198.331 59.4768C197.706 58.549 196.087 58.115 194.856 58.5438C194.469 58.679 194.127 58.8843 193.734 59.0298C193.005 59.3079 192.175 59.3573 191.372 59.4508C190.582 59.5186 189.808 59.7065 189.084 60.007C188.391 60.3241 187.81 60.8335 187.65 61.4416C187.575 61.7223 187.591 62.0134 187.516 62.2915C187.129 63.7027 184.63 64.3888 184.489 65.8287C184.439 66.3484 184.745 66.8474 185.126 67.2711C185.39 67.5595 186.021 68.3314 186.467 68.4432C186.913 68.5549 187.252 68.1625 187.678 68.0274C188.352 67.8324 188.758 67.7909 189.095 67.2581Z" fill="#CBCEDA"/>
        <path d="M220.736 158.796C220.736 171.853 229.577 182.42 240.501 182.42L220.736 158.796Z" fill="#46455B"/>
        <path d="M240.501 182.423C240.501 169.217 250.369 158.533 262.561 158.533L240.501 182.423Z" fill="#6C63FF"/>
        <path d="M227.899 159.981C227.899 172.385 233.537 182.423 240.501 182.423L227.899 159.981Z" fill="#6C63FF"/>
        <path d="M240.501 182.423C240.501 165.55 251.906 151.895 265.997 151.895L240.501 182.423Z" fill="#46455B"/>
        <path opacity="0.1" d="M239.646 186.934C242.36 186.934 244.56 186.59 244.56 186.165C244.56 185.74 242.36 185.396 239.646 185.396C236.932 185.396 234.732 185.74 234.732 186.165C234.732 186.59 236.932 186.934 239.646 186.934Z" fill="#6C63FF"/>
        <path d="M236.345 182.589C236.345 182.589 239.15 182.508 239.991 181.952C240.832 181.396 244.302 180.728 244.512 181.622C244.723 182.516 248.719 186.069 245.558 186.092C242.397 186.116 238.204 185.635 237.363 185.159C236.521 184.684 236.345 182.589 236.345 182.589Z" fill="#A8A8A8"/>
        <path opacity="0.2" d="M245.617 185.78C242.454 185.804 238.266 185.323 237.422 184.847C236.779 184.486 236.524 183.184 236.437 182.586H236.345C236.345 182.586 236.521 184.681 237.366 185.157C238.21 185.632 242.397 186.113 245.561 186.09C246.476 186.09 246.79 185.78 246.773 185.336C246.647 185.606 246.313 185.775 245.617 185.78Z" fill="black"/>
        <path d="M6.30803 166.426C6.30803 176.822 13.3397 185.222 22.0318 185.222L6.30803 166.426Z" fill="#46455B"/>
        <path d="M22.0318 185.222C22.0318 174.717 29.8853 166.215 39.5815 166.215L22.0318 185.222Z" fill="#6C63FF"/>
        <path d="M12.0046 167.372C12.0046 177.248 16.4923 185.227 22.0318 185.227L12.0046 167.372Z" fill="#6C63FF"/>
        <path d="M22.0318 185.222C22.0318 171.798 31.1054 160.934 42.3162 160.934L22.0318 185.222Z" fill="#46455B"/>
        <path opacity="0.1" d="M21.3502 188.813C23.5096 188.813 25.2601 188.539 25.2601 188.2C25.2601 187.861 23.5096 187.587 21.3502 187.587C19.1909 187.587 17.4403 187.861 17.4403 188.2C17.4403 188.539 19.1909 188.813 21.3502 188.813Z" fill="#6C63FF"/>
        <path d="M18.7249 185.354C18.7249 185.354 20.9548 185.289 21.6251 184.834C22.2955 184.38 25.0582 183.86 25.2237 184.574C25.3892 185.289 28.5754 188.112 26.0651 188.13C23.5548 188.148 20.2143 187.766 19.5439 187.389C18.8736 187.012 18.7249 185.354 18.7249 185.354Z" fill="#A8A8A8"/>
        <path opacity="0.2" d="M26.1016 187.904C23.5773 187.922 20.2507 187.54 19.5804 187.16C19.0699 186.875 18.868 185.838 18.7979 185.362H18.7249C18.7249 185.362 18.8652 187.028 19.5355 187.407C20.2059 187.787 23.5408 188.166 26.0567 188.148C26.7832 188.148 27.0356 187.904 27.0216 187.548C26.9206 187.756 26.6429 187.888 26.1016 187.904Z" fill="black"/>
    </g>
    <defs>
        <clipPath id="clip0">
            <rect width="266" height="197" fill="white"/>
        </clipPath>
    </defs>
</svg>
