<svg width="254" height="181" viewBox="0 0 254 181" fill="none" xmlns="http://www.w3.org/2000/svg">
<path d="M161.862 135.69V179.322H50.6687C37.9998 179.322 27.6922 169.535 27.6922 157.506C27.6922 145.477 37.9998 135.69 50.6687 135.69H161.862Z" fill="#F2F2F2"/>
<path d="M164.593 178.986C164.593 179.431 164.413 179.858 164.093 180.173C163.772 180.487 163.338 180.664 162.886 180.664H48.6882C42.4859 180.664 36.5376 178.242 32.152 173.931C27.7663 169.619 25.3024 163.771 25.3024 157.674C25.3024 151.576 27.7663 145.729 32.152 141.417C36.5376 137.105 42.4859 134.683 48.6882 134.683H162.886C163.338 134.683 163.773 134.86 164.093 135.175C164.413 135.489 164.593 135.916 164.593 136.361C164.593 136.806 164.413 137.233 164.093 137.548C163.773 137.863 163.338 138.04 162.886 138.04H48.6882C43.3913 138.04 38.3114 140.108 34.566 143.79C30.8206 147.472 28.7164 152.466 28.7164 157.674C28.7164 162.881 30.8206 167.875 34.566 171.557C38.3114 175.239 43.3913 177.308 48.6882 177.308H162.886C163.338 177.308 163.772 177.485 164.093 177.8C164.413 178.114 164.593 178.541 164.593 178.986Z" fill="#6C63FF"/>
<path d="M161.862 145.759H42.3723C42.2818 145.759 42.195 145.724 42.1309 145.661C42.0669 145.598 42.0309 145.512 42.0309 145.423C42.0309 145.334 42.0669 145.249 42.1309 145.186C42.195 145.123 42.2818 145.088 42.3723 145.088H161.862C161.952 145.088 162.039 145.123 162.103 145.186C162.167 145.249 162.203 145.334 162.203 145.423C162.203 145.512 162.167 145.598 162.103 145.661C162.039 145.724 161.952 145.759 161.862 145.759Z" fill="#CCCCCC"/>
<path d="M161.862 153.814H42.3723C42.2818 153.814 42.195 153.779 42.1309 153.716C42.0669 153.653 42.0309 153.567 42.0309 153.478C42.0309 153.389 42.0669 153.304 42.1309 153.241C42.195 153.178 42.2818 153.143 42.3723 153.143H161.862C161.952 153.143 162.039 153.178 162.103 153.241C162.167 153.304 162.203 153.389 162.203 153.478C162.203 153.567 162.167 153.653 162.103 153.716C162.039 153.779 161.952 153.814 161.862 153.814Z" fill="#CCCCCC"/>
<path d="M161.862 161.869H42.3723C42.2818 161.869 42.195 161.834 42.1309 161.771C42.0669 161.708 42.0309 161.623 42.0309 161.534C42.0309 161.445 42.0669 161.359 42.1309 161.296C42.195 161.233 42.2818 161.198 42.3723 161.198H161.862C161.952 161.198 162.039 161.233 162.103 161.296C162.167 161.359 162.203 161.445 162.203 161.534C162.203 161.623 162.167 161.708 162.103 161.771C162.039 161.834 161.952 161.869 161.862 161.869Z" fill="#CCCCCC"/>
<path d="M161.862 169.924H42.3723C42.2818 169.924 42.195 169.889 42.1309 169.826C42.0669 169.763 42.0309 169.678 42.0309 169.589C42.0309 169.5 42.0669 169.414 42.1309 169.351C42.195 169.288 42.2818 169.253 42.3723 169.253H161.862C161.952 169.253 162.039 169.288 162.103 169.351C162.167 169.414 162.203 169.5 162.203 169.589C162.203 169.678 162.167 169.763 162.103 169.826C162.039 169.889 161.952 169.924 161.862 169.924Z" fill="#CCCCCC"/>
<path d="M247.797 143.903L219.951 177.878L133.368 109.293C123.503 101.478 121.722 87.4994 129.399 78.1327C137.076 68.7659 151.349 67.5029 161.214 75.3174L247.797 143.903Z" fill="#F2F2F2"/>
<path d="M222.292 179.302C222.008 179.648 221.596 179.869 221.146 179.917C220.696 179.965 220.245 179.835 219.892 179.556L130.969 109.116C126.139 105.291 123.053 99.7355 122.39 93.673C121.726 87.6105 123.54 81.5372 127.431 76.7892C131.323 72.0412 136.973 69.0075 143.14 68.3553C149.307 67.7031 155.484 69.486 160.314 73.3117L249.237 143.751C249.412 143.889 249.557 144.06 249.665 144.253C249.773 144.447 249.84 144.659 249.864 144.878C249.888 145.097 249.868 145.319 249.805 145.531C249.742 145.742 249.637 145.939 249.496 146.111C249.356 146.283 249.182 146.426 248.985 146.531C248.788 146.637 248.572 146.703 248.349 146.727C248.126 146.75 247.901 146.73 247.686 146.668C247.471 146.606 247.27 146.503 247.095 146.364L158.172 75.9252C156.13 74.3062 153.783 73.0987 151.266 72.3715C148.749 71.6443 146.111 71.4117 143.503 71.6871C140.895 71.9624 138.367 72.7403 136.064 73.9762C133.762 75.2121 131.73 76.8819 130.084 78.8902C128.438 80.8984 127.21 83.2058 126.472 85.6805C125.733 88.1553 125.497 90.7488 125.778 93.313C126.06 95.8772 126.852 98.3619 128.11 100.625C129.368 102.888 131.067 104.885 133.111 106.503L222.034 176.942C222.386 177.221 222.612 177.627 222.66 178.069C222.708 178.512 222.576 178.955 222.292 179.302Z" fill="#CCCCCC"/>
<path d="M241.371 151.744L148.327 78.0405C148.292 78.0128 148.263 77.9787 148.242 77.94C148.22 77.9013 148.207 77.8588 148.202 77.815C148.197 77.7712 148.201 77.7269 148.214 77.6846C148.227 77.6423 148.248 77.6028 148.276 77.5685C148.304 77.5342 148.339 77.5057 148.378 77.4845C148.417 77.4634 148.461 77.4501 148.505 77.4454C148.55 77.4407 148.595 77.4446 148.638 77.4571C148.681 77.4695 148.721 77.4901 148.756 77.5178L241.8 151.221C241.835 151.249 241.864 151.283 241.885 151.321C241.907 151.36 241.92 151.403 241.925 151.446C241.93 151.49 241.926 151.535 241.913 151.577C241.901 151.619 241.88 151.659 241.852 151.693C241.824 151.728 241.789 151.756 241.749 151.777C241.71 151.798 241.667 151.812 241.622 151.816C241.578 151.821 241.532 151.817 241.489 151.805C241.446 151.792 241.406 151.771 241.371 151.744V151.744Z" fill="#CCCCCC"/>
<path d="M236.231 158.016L143.187 84.3128C143.116 84.2569 143.071 84.1758 143.062 84.0874C143.052 83.9989 143.079 83.9104 143.135 83.8411C143.192 83.7719 143.274 83.7276 143.364 83.718C143.454 83.7084 143.545 83.7344 143.615 83.7901L236.659 157.493C236.694 157.521 236.723 157.555 236.745 157.594C236.766 157.632 236.78 157.675 236.784 157.719C236.789 157.763 236.785 157.807 236.773 157.849C236.76 157.892 236.739 157.931 236.711 157.965C236.683 158 236.648 158.028 236.609 158.05C236.569 158.071 236.526 158.084 236.481 158.089C236.437 158.093 236.392 158.089 236.349 158.077C236.306 158.064 236.265 158.044 236.231 158.016Z" fill="#CCCCCC"/>
<path d="M231.09 164.288L138.046 90.5851C137.975 90.5293 137.93 90.4482 137.921 90.3597C137.911 90.2712 137.937 90.1825 137.994 90.1132C138.051 90.0439 138.133 89.9996 138.223 89.9901C138.313 89.9806 138.404 90.0066 138.474 90.0624L231.518 163.766C231.553 163.793 231.582 163.827 231.604 163.866C231.625 163.905 231.639 163.947 231.643 163.991C231.648 164.035 231.644 164.079 231.631 164.122C231.619 164.164 231.598 164.203 231.57 164.238C231.542 164.272 231.507 164.3 231.468 164.322C231.428 164.343 231.385 164.356 231.34 164.361C231.296 164.365 231.251 164.361 231.208 164.349C231.165 164.337 231.125 164.316 231.09 164.288V164.288Z" fill="#CCCCCC"/>
<path d="M225.949 170.561L132.905 96.8575C132.87 96.8298 132.841 96.7957 132.82 96.757C132.798 96.7183 132.785 96.6758 132.78 96.632C132.775 96.5882 132.779 96.5439 132.792 96.5016C132.804 96.4593 132.825 96.4199 132.853 96.3855C132.882 96.3512 132.916 96.3227 132.956 96.3016C132.995 96.2804 133.038 96.2671 133.083 96.2624C133.127 96.2577 133.172 96.2617 133.215 96.2741C133.258 96.2865 133.299 96.3071 133.333 96.3348L226.377 170.038C226.412 170.066 226.441 170.1 226.463 170.138C226.484 170.177 226.498 170.22 226.503 170.263C226.508 170.307 226.504 170.352 226.491 170.394C226.478 170.436 226.457 170.476 226.429 170.51C226.401 170.545 226.366 170.573 226.327 170.594C226.288 170.615 226.244 170.629 226.2 170.633C226.155 170.638 226.11 170.634 226.067 170.622C226.024 170.609 225.984 170.588 225.949 170.561Z" fill="#CCCCCC"/>
<path d="M253.659 181H0.341398C0.250854 181 0.164017 180.965 0.0999929 180.902C0.0359683 180.839 0 180.753 0 180.664C0 180.575 0.0359683 180.49 0.0999929 180.427C0.164017 180.364 0.250854 180.329 0.341398 180.329H253.659C253.749 180.329 253.836 180.364 253.9 180.427C253.964 180.49 254 180.575 254 180.664C254 180.753 253.964 180.839 253.9 180.902C253.836 180.965 253.749 181 253.659 181Z" fill="#CCCCCC"/>
<path d="M115.42 131.104L111.517 131.104L109.661 116.304L115.421 116.305L115.42 131.104Z" fill="#FFB8B8"/>
<path d="M108.729 130.007H116.256V134.667H103.99C103.99 134.055 104.113 133.449 104.351 132.884C104.589 132.318 104.938 131.805 105.378 131.372C105.818 130.939 106.341 130.596 106.916 130.362C107.491 130.128 108.107 130.007 108.729 130.007Z" fill="#2F2E41"/>
<path d="M75.5466 131.104L71.6437 131.104L69.7875 116.304L75.5479 116.305L75.5466 131.104Z" fill="#FFB8B8"/>
<path d="M68.8558 130.007H76.3829V134.667H64.1166C64.1166 134.055 64.2392 133.449 64.4773 132.884C64.7155 132.318 65.0646 131.805 65.5047 131.372C65.9448 130.939 66.4672 130.596 67.0422 130.362C67.6172 130.128 68.2335 130.007 68.8558 130.007Z" fill="#2F2E41"/>
<path d="M88.5828 21.3236V19.6454C88.5828 16.7747 89.7427 14.0215 91.8075 11.9916C93.8723 9.96174 96.6728 8.82135 99.5928 8.82135H99.5929C102.513 8.82135 105.313 9.96174 107.378 11.9916C109.443 14.0215 110.603 16.7747 110.603 19.6454V21.3236C110.603 23.3931 109.767 25.378 108.278 26.8414C106.79 28.3048 104.771 29.1269 102.665 29.1269H96.5203C95.4779 29.1269 94.4458 28.9251 93.4827 28.5329C92.5197 28.1408 91.6447 27.566 90.9076 26.8414C90.1705 26.1168 89.5859 25.2565 89.187 24.3098C88.7881 23.363 88.5828 22.3483 88.5828 21.3236Z" fill="#2F2E41"/>
<path d="M99.5928 29.7043C104.224 29.7043 107.978 26.0136 107.978 21.4609C107.978 16.9082 104.224 13.2175 99.5928 13.2175C94.9619 13.2175 91.2078 16.9082 91.2078 21.4609C91.2078 26.0136 94.9619 29.7043 99.5928 29.7043Z" fill="#FFB8B8"/>
<path d="M53.9834 49.7924C54.3237 49.4765 54.7303 49.2378 55.1745 49.0931C55.6188 48.9485 56.0899 48.9013 56.5547 48.955C57.0195 49.0086 57.4667 49.1619 57.8648 49.4038C58.2628 49.6458 58.6021 49.9706 58.8587 50.3554L66.0467 49.0187L67.9383 53.1149L57.7605 54.8624C57.0744 55.2433 56.27 55.3635 55.4997 55.2002C54.7295 55.037 54.0469 54.6017 53.5813 53.9767C53.1157 53.3518 52.8995 52.5806 52.9736 51.8095C53.0477 51.0383 53.407 50.3206 53.9834 49.7924V49.7924Z" fill="#FFB8B8"/>
<path d="M93.0557 34.8957L93.1497 35.0357L81.3626 42.6694L61.4734 48.9132C61.2097 48.9965 60.9836 49.1671 60.8334 49.3958C60.6833 49.6246 60.6184 49.8974 60.6499 50.1679L61.0838 53.8419C61.103 54.0045 61.1566 54.1614 61.2411 54.3024C61.3257 54.4435 61.4392 54.5656 61.5746 54.661C61.7099 54.7564 61.864 54.8229 62.027 54.8563C62.19 54.8897 62.3583 54.8893 62.5212 54.855L81.2399 50.9104C82.1458 50.7206 83.0024 50.3499 83.7565 49.8211L96.9986 40.5588C97.4787 40.2212 97.8617 39.7672 98.1105 39.241C98.3593 38.7148 98.4653 38.1342 98.4183 37.5558C98.3697 36.9766 98.1686 36.4197 97.8348 35.9401C97.5009 35.4605 97.0458 35.0745 96.5142 34.8203C95.9826 34.566 95.3928 34.4521 94.8029 34.4899C94.213 34.5277 93.6432 34.7158 93.1496 35.0357L93.0557 34.8957Z" fill="#CCCCCC"/>
<path d="M111.587 126.904C111.287 126.904 110.994 126.819 110.743 126.658C110.493 126.497 110.295 126.267 110.174 125.998L92.2817 82.5333C92.24 82.4391 92.1698 82.3596 92.0807 82.3057C91.9917 82.2518 91.8879 82.226 91.7835 82.2318C91.6791 82.2376 91.579 82.2747 91.4966 82.3381C91.4143 82.4015 91.3536 82.4881 91.3229 82.5864L76.7253 124.9C76.6637 125.097 76.5617 125.28 76.4257 125.437C76.2897 125.593 76.1226 125.721 75.9345 125.812C75.7464 125.903 75.5414 125.955 75.3321 125.965C75.1228 125.975 74.9136 125.943 74.7173 125.871L69.8222 124.066C69.5565 123.969 69.3234 123.801 69.1488 123.582C68.9742 123.362 68.865 123.1 68.8332 122.823C66.631 103.963 85.8348 56.3582 86.0291 55.8797L86.0829 55.7471L103.589 59.5541L103.625 59.5931C110.609 67.0836 116.35 114.328 117.43 123.723C117.47 124.062 117.392 124.405 117.208 124.695C117.023 124.984 116.744 125.203 116.416 125.316L112.095 126.818C111.932 126.875 111.76 126.904 111.587 126.904Z" fill="#2F2E41"/>
<path d="M96.5038 61.0864C92.2624 61.0864 87.5338 60.255 86.0783 56.8236L86.0447 56.7448L86.09 56.6717C87.2389 54.8186 88.7573 51.6573 87.9412 51.0639C86.3335 49.8952 85.5533 47.9727 85.6226 45.3497C85.7729 39.6554 89.7195 34.5999 95.4432 32.7695H95.4433C97.0409 32.2668 98.6667 31.8553 100.313 31.5369C101.512 31.2989 102.751 31.3251 103.94 31.6136C105.128 31.9021 106.237 32.4458 107.186 33.2056C108.147 33.9703 108.924 34.9349 109.461 36.03C109.998 37.1251 110.281 38.3235 110.291 39.5391C110.351 45.6243 109.398 54.0998 104.517 59.9185C104.289 60.1885 103.97 60.3705 103.618 60.4325C101.27 60.85 98.89 61.0688 96.5038 61.0864Z" fill="#CCCCCC"/>
<path d="M94.9261 60.8585C95.1569 60.0445 95.7052 59.353 96.4517 58.9341C97.1983 58.5153 98.0828 58.4031 98.9131 58.6218C99.0826 58.6684 99.2479 58.7286 99.4073 58.8018L104.865 53.9188L108.661 56.4327L100.856 63.2228C100.503 63.8475 99.9486 64.3384 99.2797 64.6174C98.6107 64.8963 97.8661 64.9473 97.1643 64.7622C96.7554 64.6522 96.3728 64.4636 96.0386 64.2074C95.7044 63.9511 95.4251 63.6323 95.217 63.2693C95.0089 62.9063 94.876 62.5063 94.826 62.0925C94.7761 61.6787 94.8101 61.2593 94.9261 60.8585Z" fill="#FFB8B8"/>
<path d="M104.001 60.9205C103.646 60.9207 103.303 60.8003 103.029 60.5798L100.877 58.8507C100.697 58.7065 100.554 58.5244 100.456 58.3178C100.358 58.1112 100.309 57.8856 100.313 57.6579C100.317 57.4301 100.372 57.2061 100.477 57.0026C100.581 56.7991 100.73 56.6214 100.914 56.4828L109.941 49.6763C110.048 49.5952 110.118 49.4759 110.137 49.3443C110.155 49.2127 110.119 49.0793 110.038 48.9732L104.466 41.7316C103.819 40.8931 103.494 39.8564 103.55 38.8052C103.605 37.7539 104.037 36.7558 104.769 35.9876C105.54 35.169 106.596 34.6652 107.727 34.5762C108.859 34.4873 109.983 34.8197 110.876 35.5074L110.911 35.544L116.729 43.7341C117.359 44.2191 117.865 44.8404 118.21 45.5497C118.554 46.2589 118.727 47.0369 118.715 47.8228C118.703 48.6086 118.507 49.3812 118.141 50.08C117.775 50.7789 117.25 51.3852 116.606 51.8515L104.915 60.6244C104.65 60.8167 104.33 60.9205 104.001 60.9205Z" fill="#CCCCCC"/>
<path d="M92.1655 19.142V15.0519L99.5928 11.8635L106.675 15.0519V19.142C106.675 19.32 106.603 19.4907 106.475 19.6166C106.347 19.7425 106.173 19.8132 105.992 19.8132H92.8483C92.6672 19.8132 92.4936 19.7425 92.3655 19.6166C92.2375 19.4907 92.1655 19.32 92.1655 19.142Z" fill="#2F2E41"/>
<path d="M99.2519 9.36392C98.1598 5.92758 100.453 1.98937 103.844 0.629174C107.235 -0.73102 111.291 0.219797 114.152 2.46704C117.013 4.71429 118.788 8.08024 119.729 11.5596C120.669 15.039 120.848 18.6672 121.021 22.2633C125.187 23.0156 128.021 27.8731 126.578 31.7879C125.135 35.7027 119.793 37.6476 116.105 35.6014C112.416 33.5552 111.347 28.0549 114.01 24.8164C115.269 23.284 115.973 21.3822 116.009 19.4123C116.045 17.4423 115.412 15.5168 114.209 13.9407C113.007 12.3646 111.304 11.228 109.37 10.7109C107.436 10.1938 105.382 10.3257 103.533 11.0859C101.48 11.93 98.9036 9.73689 99.2519 9.36392Z" fill="#2F2E41"/>
<path d="M52.4435 33.9264C47.4559 33.8942 42.5307 32.8337 37.986 30.8134C37.7154 30.6949 37.4858 30.5016 37.3251 30.257C37.1643 30.0124 37.0794 29.7272 37.0806 29.436V17.2131C37.0811 16.8127 37.2431 16.4288 37.5311 16.1456C37.8191 15.8625 38.2096 15.7032 38.6169 15.7028H66.2701C66.6774 15.7032 67.0679 15.8625 67.356 16.1456C67.644 16.4288 67.806 16.8127 67.8064 17.2131V29.436C67.8077 29.7272 67.7227 30.0125 67.562 30.257C67.4012 30.5016 67.1716 30.6949 66.9011 30.8135C62.3564 32.8337 57.4311 33.8942 52.4435 33.9264Z" fill="#6C63FF"/>
<path d="M52.4398 24.0243C52.2348 24.0244 52.0318 23.9843 51.8428 23.9063L29.9141 14.8108C29.6313 14.6936 29.3908 14.4957 29.2234 14.2428C29.0561 13.9898 28.9697 13.6934 28.9753 13.3917C28.9809 13.09 29.0783 12.7969 29.255 12.5502C29.4316 12.3034 29.6794 12.1144 29.9664 12.0073L51.8953 3.82882C52.2485 3.69649 52.639 3.69731 52.9917 3.83112L74.6267 12.0096C74.9121 12.1175 75.1582 12.3066 75.3336 12.5528C75.509 12.7989 75.6057 13.0909 75.6114 13.3914C75.617 13.6919 75.5313 13.9872 75.3653 14.2396C75.1993 14.492 74.9604 14.6899 74.6793 14.8081L53.044 23.9033C52.853 23.9833 52.6474 24.0244 52.4398 24.0243Z" fill="#6C63FF"/>
<path d="M39.6412 31.6451C40.7725 31.6451 41.6895 30.7435 41.6895 29.6313C41.6895 28.5192 40.7725 27.6176 39.6412 27.6176C38.5099 27.6176 37.5928 28.5192 37.5928 29.6313C37.5928 30.7435 38.5099 31.6451 39.6412 31.6451Z" fill="#3F3D56"/>
<path opacity="0.2" d="M74.7541 13.517L53.1186 22.6123C52.95 22.6832 52.7685 22.72 52.5851 22.7204C52.4016 22.7208 52.22 22.6849 52.0509 22.6148L30.1223 13.5197C29.8469 13.4082 29.6172 13.2097 29.4693 12.9555C29.3727 13.1203 29.3127 13.3035 29.2936 13.4928C29.2744 13.6822 29.2964 13.8733 29.3582 14.0537C29.4199 14.234 29.52 14.3994 29.6518 14.5388C29.7835 14.6782 29.9439 14.7884 30.1223 14.8622L52.0509 23.9574C52.22 24.0275 52.4016 24.0634 52.5851 24.0629C52.7685 24.0625 52.95 24.0257 53.1186 23.9548L74.7541 14.8595C74.9316 14.7851 75.091 14.6745 75.2218 14.5351C75.3526 14.3956 75.4519 14.2304 75.513 14.0505C75.5741 13.8705 75.5958 13.6799 75.5764 13.4911C75.5571 13.3024 75.4972 13.1198 75.4009 12.9554C75.2541 13.2076 75.0267 13.405 74.7541 13.517Z" fill="black"/>
<path d="M39.8133 29.6235C39.9038 29.6235 39.9906 29.5881 40.0547 29.5252C40.1187 29.4622 40.1547 29.3769 40.1547 29.2878V18.0572L51.4144 14.0246C51.5049 14.0259 51.5923 13.9918 51.6573 13.9298C51.7222 13.8678 51.7595 13.783 51.7609 13.694C51.7622 13.6049 51.7275 13.519 51.6645 13.4552C51.6014 13.3913 51.5151 13.3547 51.4245 13.3533L40.1648 17.386C40.0742 17.3839 39.9841 17.4 39.9 17.4331C39.8159 17.4663 39.7395 17.516 39.6755 17.579C39.6108 17.6413 39.5594 17.7157 39.5244 17.7979C39.4895 17.88 39.4716 17.9682 39.4719 18.0572V29.2878C39.4719 29.3769 39.5078 29.4622 39.5719 29.5252C39.6359 29.5881 39.7227 29.6235 39.8133 29.6235Z" fill="#3F3D56"/>
</svg>
