<svg width="250" height="185" viewBox="0 0 250 185" fill="none" xmlns="http://www.w3.org/2000/svg">
    <g clip-path="url(#clip0)">
        <path d="M191.406 182.908C188.205 179.56 186.261 174.272 186.771 169.124C187.281 163.976 190.439 159.244 194.535 158.15C198.631 157.057 203.3 160.083 204.545 165.036C205.229 155.487 206.018 145.539 210.12 137.407C213.834 130.044 220.266 124.776 227.237 123.834C234.209 122.891 241.548 126.451 245.896 133.261C250.244 140.072 251.308 149.973 248.263 157.792C246.02 163.552 241.887 167.839 237.557 171.326C223.565 182.5 206.784 187.044 190.3 184.122L191.406 182.908Z" fill="#F2F2F2"/>
        <path d="M239.002 126.648C233.25 132.447 227.973 138.933 223.248 146.012C215.852 157.052 209.868 169.43 205.503 182.715C205.183 183.684 206.455 184.106 206.771 183.148C213.913 161.557 225.314 142.527 239.932 127.799C240.588 127.137 239.653 125.992 239.002 126.648Z" fill="white"/>
        <path d="M80.479 181.998C84.8752 177.401 87.5454 170.137 86.8452 163.067C86.1449 155.996 81.8076 149.495 76.1815 147.994C70.5554 146.492 64.142 150.649 62.4331 157.451C61.4927 144.336 60.409 130.672 54.7756 119.503C49.6746 109.39 40.8397 102.154 31.2647 100.86C21.6897 99.5651 11.6084 104.454 5.6368 113.809C-0.334798 123.163 -1.79692 136.762 2.38543 147.501C5.46642 155.413 11.1427 161.301 17.09 166.09C36.064 181.372 59.6013 187.746 81.9973 183.666" fill="#F2F2F2"/>
        <path d="M15.1054 104.726C23.006 112.691 30.2539 121.599 36.7444 131.322C43.2359 141.034 48.951 151.504 53.8094 162.582C56.525 168.797 58.9645 175.19 61.117 181.734C61.5559 183.065 59.8095 183.644 59.3755 182.328C55.5629 170.791 50.846 159.745 45.2925 149.347C39.7659 138.987 33.4404 129.315 26.4049 120.467C22.4256 115.465 18.2271 110.738 13.8284 106.306C12.9268 105.397 14.2112 103.824 15.1054 104.726L15.1054 104.726Z" fill="white"/>
        <path d="M179.454 184.595H74.569V51.395C74.569 23.0556 93.1961 0 116.092 0H137.931C160.827 0 179.454 23.0556 179.454 51.395V184.595Z" fill="#F2F2F2"/>
        <path d="M157.615 184.595H74.569V51.3949C74.5461 40.5359 77.3242 29.9514 82.4988 21.1824C82.6895 20.8606 82.8798 20.5429 83.076 20.2288C85.579 16.1655 88.5575 12.5871 91.9134 9.61166C92.103 9.44094 92.2933 9.27318 92.4865 9.10542C95.2946 6.70014 98.3322 4.73387 101.53 3.25137C101.72 3.16228 101.913 3.07301 102.107 2.98739C104.999 1.70983 107.997 0.834715 111.046 0.37819C111.235 0.346233 111.429 0.321226 111.623 0.296218C114.594 -0.0969693 117.59 -0.0969693 120.561 0.296218C120.755 0.321226 120.949 0.34623 121.14 0.378532C124.188 0.835087 127.186 1.7101 130.077 2.98741C130.271 3.07303 130.464 3.16229 130.654 3.25156C133.813 4.71536 136.815 6.65228 139.593 9.01911C139.786 9.18323 139.979 9.351 140.17 9.51876C142.051 11.1807 143.817 13.0323 145.452 15.0545C146.763 16.6765 147.985 18.4055 149.109 20.2298C149.304 20.5429 149.494 20.8606 149.685 21.1819C154.86 29.951 157.638 40.5357 157.615 51.3949V184.595Z" fill="#CCCCCC"/>
        <path d="M150.862 125.02C153.401 125.02 155.46 122.472 155.46 119.329C155.46 116.186 153.401 113.638 150.862 113.638C148.323 113.638 146.264 116.186 146.264 119.329C146.264 122.472 148.323 125.02 150.862 125.02Z" fill="#6C63FF"/>
        <path d="M170.862 180.605H167.339L165.663 163.786L170.862 163.787L170.862 180.605Z" fill="#FFB8B8"/>
        <path d="M164.822 179.359H171.617V184.654H160.544C160.544 183.959 160.655 183.27 160.87 182.628C161.085 181.986 161.4 181.402 161.797 180.91C162.195 180.419 162.666 180.029 163.185 179.762C163.704 179.496 164.261 179.359 164.822 179.359Z" fill="#2F2E41"/>
        <path d="M188.391 180.605H184.868L183.191 163.786L188.391 163.787L188.391 180.605Z" fill="#FFB8B8"/>
        <path d="M182.351 179.359H189.145V184.654H178.073C178.073 183.959 178.184 183.27 178.399 182.628C178.614 181.986 178.929 181.402 179.326 180.91C179.723 180.419 180.195 180.029 180.714 179.762C181.233 179.496 181.789 179.359 182.351 179.359Z" fill="#2F2E41"/>
        <path d="M153.189 120.456C152.936 119.994 152.767 119.469 152.695 118.917C152.624 118.366 152.651 117.801 152.774 117.264C152.898 116.727 153.115 116.23 153.411 115.808C153.706 115.386 154.073 115.049 154.485 114.821L166.461 73.966L172.354 77.9465L158.68 116.989C158.943 117.871 158.936 118.843 158.659 119.718C158.382 120.594 157.855 121.314 157.179 121.741C156.502 122.169 155.722 122.274 154.987 122.037C154.251 121.8 153.612 121.238 153.189 120.456Z" fill="#FFB8B8"/>
        <path d="M186.591 128.133C186.199 127.855 185.862 127.474 185.602 127.018C185.342 126.561 185.167 126.039 185.087 125.489C185.008 124.939 185.027 124.375 185.143 123.835C185.26 123.295 185.47 122.793 185.76 122.365L182.05 79.1474L188.756 79.5266L190.298 122.037C190.847 122.687 191.184 123.564 191.246 124.501C191.307 125.439 191.089 126.371 190.632 127.123C190.175 127.874 189.511 128.392 188.766 128.578C188.022 128.764 187.248 128.606 186.591 128.133Z" fill="#FFB8B8"/>
        <path d="M175.892 66.3986C179.79 66.3986 182.95 62.4875 182.95 57.6628C182.95 52.8382 179.79 48.9271 175.892 48.9271C171.995 48.9271 168.835 52.8382 168.835 57.6628C168.835 62.4875 171.995 66.3986 175.892 66.3986Z" fill="#FFB8B8"/>
        <path d="M186.546 118.304H165.268L165.294 118.099C165.332 117.793 169.086 87.3549 166.317 77.3971C166.039 76.4185 166.064 75.3473 166.386 74.3897C166.708 73.4321 167.304 72.6558 168.061 72.2101H168.061C172.019 69.9034 179.615 67.0631 186.027 73.9562C186.97 74.9872 187.707 76.2758 188.179 77.72C188.651 79.1643 188.844 80.7246 188.745 82.2775L186.546 118.304Z" fill="#6C63FF"/>
        <path d="M169.355 91.8531L159.775 89.4476L164.266 76.2771C164.534 75.0014 165.201 73.9098 166.119 73.2416C167.037 72.5734 168.132 72.3832 169.163 72.7127C170.194 73.0422 171.078 73.8646 171.62 74.9993C172.162 76.1341 172.318 77.4887 172.055 78.7659L169.355 91.8531Z" fill="#6C63FF"/>
        <path d="M181.624 96.3195L181.048 79.9793C180.611 76.9077 182.032 74.0039 184.217 73.5293C186.402 73.0564 188.536 75.1868 188.975 78.281L191.139 93.5493L181.624 96.3195Z" fill="#6C63FF"/>
        <path d="M185.838 116.348C189.262 132.487 189.635 153.007 188.712 175.39L184.114 174.678L175.781 131.997L171.183 175.39L166.01 175.034C164.465 151.549 162.961 131.387 165.436 118.126L185.838 116.348Z" fill="#2F2E41"/>
        <path d="M180.543 64.4141C179.226 66.15 176.781 65.2181 176.609 62.8465C176.596 62.6624 176.597 62.4771 176.612 62.2932C176.701 61.2427 177.191 60.289 177.074 59.1798C177.047 58.9037 176.964 58.6407 176.832 58.4155C175.783 56.6765 173.32 59.1933 172.33 57.619C171.723 56.6537 172.437 55.1339 171.971 54.055C171.356 52.631 169.534 53.3335 168.392 52.5536C167.121 51.686 167.197 49.2724 168.034 47.8044C169.054 46.0141 170.843 45.0588 172.609 44.9211C174.376 44.7834 176.13 45.3745 177.78 46.17C179.653 47.0739 181.512 48.3231 182.665 50.3626C184.067 52.8427 184.202 56.1771 183.501 59.0772C183.074 60.8414 181.618 62.9965 180.543 64.4141Z" fill="#2F2E41"/>
        <path d="M241.374 184.824H29.2206C29.13 184.824 29.0432 184.779 28.9793 184.699C28.9153 184.62 28.8794 184.513 28.8794 184.4C28.8794 184.288 28.9153 184.181 28.9793 184.101C29.0432 184.022 29.13 183.977 29.2206 183.977H241.374C241.465 183.977 241.551 184.022 241.615 184.101C241.679 184.181 241.715 184.288 241.715 184.4C241.715 184.513 241.679 184.62 241.615 184.699C241.551 184.779 241.465 184.824 241.374 184.824Z" fill="#3F3D56"/>
        <path d="M134.77 146.004H97.4138C96.9218 146.008 96.4489 145.769 96.0987 145.341C95.7485 144.914 95.5498 144.332 95.546 143.723V40.5168C95.5498 39.9078 95.7485 39.3256 96.0987 38.8979C96.4489 38.4701 96.9218 38.2317 97.4138 38.235H134.77C135.262 38.2317 135.735 38.4701 136.085 38.8979C136.435 39.3256 136.634 39.9078 136.638 40.5168V143.723C136.634 144.332 136.435 144.914 136.085 145.341C135.735 145.769 135.262 146.008 134.77 146.004Z" fill="white"/>
        <path d="M136.638 71.6292H95.546V72.3405H136.638V71.6292Z" fill="#CCCCCC"/>
        <path d="M136.782 112.215H95.6896V112.927H136.782V112.215Z" fill="#CCCCCC"/>
        <path d="M109.052 38.235H108.477V146.36H109.052V38.235Z" fill="#CCCCCC"/>
        <path d="M123.42 38.235H122.845V146.36H123.42V38.235Z" fill="#CCCCCC"/>
    </g>
    <defs>
        <clipPath id="clip0">
            <rect width="250" height="185" fill="white"/>
        </clipPath>
    </defs>
</svg>
