<svg width="342" height="282" viewBox="0 0 342 282" fill="none" xmlns="http://www.w3.org/2000/svg">
    <g clip-path="url(#clip0)">
        <path d="M297.954 271.795V243.849C297.954 243.849 309.556 263.661 297.954 271.795Z" fill="#F1F1F1"/>
        <path d="M298.671 271.79L276.739 252.891C276.739 252.891 300.134 258.267 298.671 271.79Z" fill="#F1F1F1"/>
        <path d="M43.8135 271.795V243.849C43.8135 243.849 32.2111 263.661 43.8135 271.795Z" fill="#F1F1F1"/>
        <path d="M43.0968 271.79L65.0283 252.891C65.0283 252.891 41.6335 258.267 43.0968 271.79Z" fill="#F1F1F1"/>
        <path d="M243.127 64.5319H241.537V23.6572C241.537 20.5505 240.885 17.4742 239.619 14.604C238.352 11.7338 236.496 9.12581 234.156 6.92904C231.815 4.73226 229.037 2.98969 225.979 1.8008C222.921 0.611916 219.644 2.53658e-06 216.334 0H124.076C120.767 -6.59493e-06 117.489 0.611898 114.431 1.80078C111.374 2.98965 108.595 4.73222 106.255 6.92899C103.915 9.12575 102.058 11.7337 100.792 14.6039C99.525 17.4741 98.8731 20.5504 98.8731 23.6571V247.899C98.8731 254.173 101.528 260.191 106.255 264.627C110.981 269.064 117.392 271.556 124.076 271.556H216.334C223.018 271.556 229.429 269.064 234.155 264.627C238.882 260.191 241.537 254.173 241.537 247.899V93.6272H243.127V64.5319Z" fill="#3F3D56"/>
        <path d="M217.351 6.1548H205.308C205.862 7.42928 206.074 8.81204 205.924 10.1813C205.774 11.5505 205.268 12.8642 204.45 14.0066C203.632 15.149 202.528 16.0851 201.234 16.7323C199.94 17.3796 198.496 17.7182 197.029 17.7183H144.176C142.71 17.7182 141.266 17.3796 139.972 16.7323C138.677 16.0851 137.573 15.149 136.755 14.0066C135.937 12.8642 135.431 11.5505 135.281 10.1813C135.132 8.81203 135.343 7.42927 135.897 6.15479H124.649C119.657 6.15478 114.87 8.01611 111.34 11.3293C107.81 14.6425 105.827 19.1361 105.827 23.8217V247.735C105.827 250.055 106.314 252.352 107.26 254.495C108.206 256.639 109.592 258.586 111.34 260.227C113.088 261.867 115.163 263.169 117.446 264.057C119.73 264.944 122.177 265.401 124.649 265.401H217.351C219.823 265.401 222.27 264.944 224.554 264.057C226.837 263.169 228.912 261.867 230.66 260.227C232.408 258.586 233.794 256.639 234.74 254.495C235.686 252.352 236.173 250.055 236.173 247.735V23.8217C236.173 21.5016 235.686 19.2043 234.74 17.0609C233.794 14.9174 232.408 12.9698 230.66 11.3293C228.912 9.68878 226.837 8.38744 224.554 7.4996C222.27 6.61176 219.823 6.15479 217.351 6.1548Z" fill="white"/>
        <path d="M215.029 261.557H126.971C116.853 261.557 108.621 254.66 108.621 246.183V235.054C108.621 228.297 115.177 222.801 123.235 222.801H218.765C226.823 222.801 233.379 228.297 233.379 235.054V246.183C233.379 254.66 225.147 261.557 215.029 261.557Z" fill="#E5E5E5"/>
        <path d="M136.228 74.4974H116.585C116.233 74.497 115.896 74.3656 115.647 74.1321C115.399 73.8985 115.259 73.5819 115.258 73.2516V54.8141C115.259 54.4839 115.399 54.1672 115.647 53.9337C115.896 53.7001 116.233 53.5687 116.585 53.5684H136.228C136.58 53.5687 136.917 53.7001 137.166 53.9337C137.415 54.1672 137.554 54.4839 137.555 54.8141V73.2516C137.554 73.5819 137.415 73.8985 137.166 74.1321C136.917 74.3656 136.58 74.497 136.228 74.4974Z" fill="#6C63FF"/>
        <path d="M165.957 74.4974H146.314C145.962 74.497 145.625 74.3656 145.376 74.1321C145.128 73.8985 144.988 73.5819 144.987 73.2516V54.8141C144.988 54.4839 145.128 54.1672 145.376 53.9337C145.625 53.7001 145.962 53.5687 146.314 53.5684H165.957C166.309 53.5687 166.646 53.7001 166.895 53.9337C167.143 54.1672 167.283 54.4839 167.284 54.8141V73.2516C167.283 73.5819 167.143 73.8985 166.895 74.1321C166.646 74.3656 166.309 74.497 165.957 74.4974Z" fill="#E5E5E5"/>
        <path d="M195.686 74.4974H176.043C175.691 74.497 175.354 74.3656 175.105 74.1321C174.856 73.8985 174.717 73.5819 174.716 73.2516V54.8141C174.717 54.4839 174.856 54.1672 175.105 53.9337C175.354 53.7001 175.691 53.5687 176.043 53.5684H195.686C196.038 53.5687 196.375 53.7001 196.624 53.9337C196.872 54.1672 197.012 54.4839 197.013 54.8141V73.2516C197.012 73.5819 196.872 73.8985 196.624 74.1321C196.375 74.3656 196.038 74.497 195.686 74.4974Z" fill="#E5E5E5"/>
        <path d="M225.415 74.4974H205.772C205.42 74.497 205.083 74.3656 204.834 74.1321C204.585 73.8985 204.445 73.5819 204.445 73.2516V54.8141C204.445 54.4839 204.585 54.1672 204.834 53.9337C205.083 53.7001 205.42 53.5687 205.772 53.5684H225.415C225.767 53.5687 226.104 53.7001 226.353 53.9337C226.601 54.1672 226.741 54.4839 226.742 54.8141V73.2516C226.741 73.5819 226.601 73.8985 226.353 74.1321C226.104 74.3656 225.767 74.497 225.415 74.4974Z" fill="#E5E5E5"/>
        <path d="M136.157 108.632H116.515C116.163 108.631 115.826 108.5 115.577 108.266C115.328 108.033 115.188 107.716 115.188 107.386V88.9484C115.188 88.6181 115.328 88.3014 115.577 88.0679C115.826 87.8343 116.163 87.703 116.515 87.7026H136.157C136.509 87.703 136.847 87.8343 137.095 88.0679C137.344 88.3014 137.484 88.6181 137.485 88.9484V107.386C137.484 107.716 137.344 108.033 137.095 108.266C136.847 108.5 136.509 108.631 136.157 108.632Z" fill="#E5E5E5"/>
        <path d="M165.886 108.632H146.244C145.892 108.631 145.555 108.5 145.306 108.266C145.057 108.033 144.917 107.716 144.917 107.386V88.9484C144.917 88.6181 145.057 88.3014 145.306 88.0679C145.555 87.8343 145.892 87.703 146.244 87.7026H165.886C166.238 87.703 166.576 87.8343 166.824 88.0679C167.073 88.3014 167.213 88.6181 167.214 88.9484V107.386C167.213 107.716 167.073 108.033 166.824 108.266C166.576 108.5 166.238 108.631 165.886 108.632Z" fill="#E5E5E5"/>
        <path d="M195.615 108.632H175.973C175.621 108.631 175.284 108.5 175.035 108.266C174.786 108.033 174.646 107.716 174.646 107.386V88.9484C174.646 88.6181 174.786 88.3014 175.035 88.0679C175.284 87.8343 175.621 87.703 175.973 87.7026H195.615C195.967 87.703 196.305 87.8343 196.553 88.0679C196.802 88.3014 196.942 88.6181 196.943 88.9484V107.386C196.942 107.716 196.802 108.033 196.553 108.266C196.305 108.5 195.967 108.631 195.615 108.632Z" fill="#6C63FF"/>
        <path d="M225.344 108.632H205.702C205.35 108.631 205.013 108.5 204.764 108.266C204.515 108.033 204.375 107.716 204.375 107.386V88.9484C204.375 88.6181 204.515 88.3014 204.764 88.0679C205.013 87.8343 205.35 87.703 205.702 87.7026H225.344C225.696 87.703 226.034 87.8343 226.282 88.0679C226.531 88.3014 226.671 88.6181 226.672 88.9484V107.386C226.671 107.716 226.531 108.033 226.282 108.266C226.034 108.5 225.696 108.631 225.344 108.632Z" fill="#6C63FF"/>
        <path d="M136.087 142.766H116.445C116.093 142.765 115.756 142.634 115.507 142.401C115.258 142.167 115.118 141.85 115.118 141.52V123.083C115.118 122.752 115.258 122.436 115.507 122.202C115.756 121.969 116.093 121.837 116.445 121.837H136.087C136.439 121.837 136.776 121.969 137.025 122.202C137.274 122.436 137.414 122.752 137.414 123.083V141.52C137.414 141.85 137.274 142.167 137.025 142.401C136.776 142.634 136.439 142.765 136.087 142.766Z" fill="#E5E5E5"/>
        <path d="M165.816 142.766H146.174C145.822 142.765 145.485 142.634 145.236 142.401C144.987 142.167 144.847 141.85 144.847 141.52V123.083C144.847 122.752 144.987 122.436 145.236 122.202C145.485 121.969 145.822 121.837 146.174 121.837H165.816C166.168 121.837 166.505 121.969 166.754 122.202C167.003 122.436 167.143 122.752 167.143 123.083V141.52C167.143 141.85 167.003 142.167 166.754 142.401C166.505 142.634 166.168 142.765 165.816 142.766Z" fill="#E5E5E5"/>
        <path d="M195.545 142.766H175.903C175.551 142.765 175.214 142.634 174.965 142.401C174.716 142.167 174.576 141.85 174.576 141.52V123.083C174.576 122.752 174.716 122.436 174.965 122.202C175.214 121.969 175.551 121.837 175.903 121.837H195.545C195.897 121.837 196.234 121.969 196.483 122.202C196.732 122.436 196.872 122.752 196.872 123.083V141.52C196.872 141.85 196.732 142.167 196.483 142.401C196.234 142.634 195.897 142.765 195.545 142.766Z" fill="#E5E5E5"/>
        <path d="M225.274 142.766H205.632C205.28 142.765 204.943 142.634 204.694 142.401C204.445 142.167 204.305 141.85 204.305 141.52V123.083C204.305 122.752 204.445 122.436 204.694 122.202C204.943 121.969 205.28 121.837 205.632 121.837H225.274C225.626 121.837 225.963 121.969 226.212 122.202C226.461 122.436 226.601 122.752 226.601 123.083V141.52C226.601 141.85 226.461 142.167 226.212 142.401C225.963 142.634 225.626 142.765 225.274 142.766Z" fill="#E5E5E5"/>
        <path d="M136.017 176.9H116.375C116.023 176.9 115.685 176.768 115.437 176.535C115.188 176.301 115.048 175.985 115.047 175.654V157.217C115.048 156.887 115.188 156.57 115.437 156.336C115.685 156.103 116.023 155.971 116.375 155.971H136.017C136.369 155.971 136.706 156.103 136.955 156.336C137.204 156.57 137.344 156.887 137.344 157.217V175.654C137.344 175.985 137.204 176.301 136.955 176.535C136.706 176.768 136.369 176.9 136.017 176.9Z" fill="#E5E5E5"/>
        <path d="M165.746 176.9H146.104C145.752 176.9 145.414 176.768 145.166 176.535C144.917 176.301 144.777 175.985 144.776 175.654V157.217C144.777 156.887 144.917 156.57 145.166 156.336C145.414 156.103 145.752 155.971 146.104 155.971H165.746C166.098 155.971 166.435 156.103 166.684 156.336C166.933 156.57 167.073 156.887 167.073 157.217V175.654C167.073 175.985 166.933 176.301 166.684 176.535C166.435 176.768 166.098 176.9 165.746 176.9Z" fill="#E5E5E5"/>
        <path d="M195.475 176.9H175.833C175.481 176.9 175.143 176.768 174.895 176.535C174.646 176.301 174.506 175.985 174.505 175.654V157.217C174.506 156.887 174.646 156.57 174.895 156.336C175.143 156.103 175.481 155.971 175.833 155.971H195.475C195.827 155.971 196.164 156.103 196.413 156.336C196.662 156.57 196.802 156.887 196.802 157.217V175.654C196.802 175.985 196.662 176.301 196.413 176.535C196.164 176.768 195.827 176.9 195.475 176.9Z" fill="#E5E5E5"/>
        <path d="M225.204 176.9H205.562C205.21 176.9 204.872 176.768 204.624 176.535C204.375 176.301 204.235 175.985 204.234 175.654V157.217C204.235 156.887 204.375 156.57 204.624 156.336C204.872 156.103 205.21 155.971 205.562 155.971H225.204C225.556 155.971 225.893 156.103 226.142 156.336C226.391 156.57 226.531 156.887 226.531 157.217V175.654C226.531 175.985 226.391 176.301 226.142 176.535C225.893 176.768 225.556 176.9 225.204 176.9Z" fill="#E5E5E5"/>
        <path d="M136.228 253.141H116.585C116.233 253.141 115.896 253.01 115.647 252.776C115.399 252.543 115.259 252.226 115.258 251.896V233.458C115.259 233.128 115.399 232.811 115.647 232.578C115.896 232.344 116.233 232.213 116.585 232.212H136.228C136.58 232.213 136.917 232.344 137.166 232.578C137.415 232.811 137.554 233.128 137.555 233.458V251.896C137.554 252.226 137.415 252.543 137.166 252.776C136.917 253.01 136.58 253.141 136.228 253.141Z" fill="white"/>
        <path d="M165.957 253.141H146.314C145.962 253.141 145.625 253.01 145.376 252.776C145.128 252.543 144.988 252.226 144.987 251.896V233.458C144.988 233.128 145.128 232.811 145.376 232.578C145.625 232.344 145.962 232.213 146.314 232.212H165.957C166.309 232.213 166.646 232.344 166.895 232.578C167.143 232.811 167.283 233.128 167.284 233.458V251.896C167.283 252.226 167.143 252.543 166.895 252.776C166.646 253.01 166.309 253.141 165.957 253.141Z" fill="white"/>
        <path d="M195.686 253.141H176.043C175.691 253.141 175.354 253.01 175.105 252.776C174.856 252.543 174.717 252.226 174.716 251.896V233.458C174.717 233.128 174.856 232.811 175.105 232.578C175.354 232.344 175.691 232.213 176.043 232.212H195.686C196.038 232.213 196.375 232.344 196.624 232.578C196.872 232.811 197.012 233.128 197.013 233.458V251.896C197.012 252.226 196.872 252.543 196.624 252.776C196.375 253.01 196.038 253.141 195.686 253.141Z" fill="white"/>
        <path d="M225.415 253.141H205.772C205.42 253.141 205.083 253.01 204.834 252.776C204.585 252.543 204.445 252.226 204.445 251.896V233.458C204.445 233.128 204.585 232.811 204.834 232.578C205.083 232.344 205.42 232.213 205.772 232.212H225.415C225.767 232.213 226.104 232.344 226.353 232.578C226.601 232.811 226.741 233.128 226.742 233.458V251.896C226.741 252.226 226.601 252.543 226.353 252.776C226.104 253.01 225.767 253.141 225.415 253.141Z" fill="white"/>
        <path d="M161.374 214.273C162.84 214.273 164.028 213.158 164.028 211.782C164.028 210.406 162.84 209.29 161.374 209.29C159.908 209.29 158.72 210.406 158.72 211.782C158.72 213.158 159.908 214.273 161.374 214.273Z" fill="#E5E5E5"/>
        <path d="M170.93 214.273C172.396 214.273 173.584 213.158 173.584 211.782C173.584 210.406 172.396 209.29 170.93 209.29C169.464 209.29 168.275 210.406 168.275 211.782C168.275 213.158 169.464 214.273 170.93 214.273Z" fill="#E5E5E5"/>
        <path d="M180.486 214.273C181.951 214.273 183.14 213.158 183.14 211.782C183.14 210.406 181.951 209.29 180.486 209.29C179.02 209.29 177.831 210.406 177.831 211.782C177.831 213.158 179.02 214.273 180.486 214.273Z" fill="#E5E5E5"/>
        <path d="M341.588 271.96H0.411552C0.302402 271.96 0.197722 271.919 0.120541 271.847C0.0433595 271.775 0 271.676 0 271.574C0 271.471 0.0433595 271.373 0.120541 271.301C0.197722 271.228 0.302402 271.188 0.411552 271.188H341.588C341.698 271.188 341.802 271.228 341.879 271.301C341.957 271.373 342 271.471 342 271.574C342 271.676 341.957 271.775 341.879 271.847C341.802 271.919 341.698 271.96 341.588 271.96Z" fill="#CBCBCB"/>
        <path d="M134.316 195.897C134.871 195.376 135.298 194.747 135.566 194.054C135.835 193.362 135.938 192.622 135.869 191.888C135.8 191.154 135.56 190.443 135.167 189.806C134.773 189.168 134.236 188.619 133.592 188.197L138.775 170.957L129.324 173.778L125.851 189.717C125.168 190.78 124.924 192.04 125.165 193.26C125.406 194.48 126.116 195.575 127.159 196.336C128.203 197.098 129.507 197.474 130.826 197.393C132.145 197.312 133.387 196.78 134.316 195.897Z" fill="#FFB7B7"/>
        <path d="M137.003 185.329C136.834 185.36 136.663 185.373 136.491 185.37L127.424 185.2C127.083 185.193 126.747 185.119 126.439 184.981C126.131 184.843 125.858 184.645 125.637 184.401C125.417 184.156 125.255 183.87 125.161 183.562C125.068 183.254 125.045 182.931 125.095 182.614L134.292 124.285C134.567 122.598 135.475 121.059 136.853 119.945C138.231 118.832 139.988 118.218 141.806 118.214C142.954 118.217 144.087 118.464 145.118 118.938C146.149 119.411 147.052 120.099 147.759 120.948C148.466 121.797 148.958 122.786 149.198 123.84C149.438 124.894 149.419 125.985 149.144 127.031L142.625 151.816L138.928 183.362C138.874 183.84 138.658 184.29 138.312 184.644C137.965 184.998 137.506 185.239 137.003 185.329Z" fill="#3F3D56"/>
        <path d="M140.794 277.409H145.84L148.24 259.141L140.793 259.142L140.794 277.409Z" fill="#FFB7B7"/>
        <path d="M139.507 275.863L149.444 275.863H149.444C151.124 275.863 152.734 276.489 153.922 277.604C155.109 278.718 155.776 280.23 155.777 281.806V281.999L139.508 282L139.507 275.863Z" fill="#2F2E41"/>
        <path d="M162.309 275.871L167.323 276.398L171.877 258.496L164.477 257.717L162.309 275.871Z" fill="#FFB7B7"/>
        <path d="M161.213 274.2L171.088 275.239L171.088 275.239C172.757 275.415 174.283 276.205 175.331 277.437C176.379 278.669 176.863 280.242 176.675 281.808L176.653 282L160.485 280.299L161.213 274.2Z" fill="#2F2E41"/>
        <path d="M136.059 175.752C136.059 175.752 129.141 190.126 135.25 199.463L138.889 272.153H147.245L155.351 213.435L169.756 230.818L160.98 271.391L171.199 271.93L185.395 230.818C185.395 230.818 174.489 185.486 170.888 184.394L168.521 174.031L136.059 175.752Z" fill="#2F2E41"/>
        <path d="M132.98 188.372C132.98 188.372 126.748 195.085 143.21 197.403C159.673 199.721 176.958 196.244 177.369 191.608C177.781 186.973 132.98 188.372 132.98 188.372Z" fill="#CBCBCB"/>
        <path d="M215.503 105.096C215.478 105.751 215.299 106.393 214.981 106.977C214.662 107.561 214.211 108.072 213.66 108.474C213.108 108.876 212.469 109.16 211.788 109.306C211.107 109.451 210.4 109.455 209.717 109.316L203.495 117.74L197.119 115.438L206.085 103.659C206.409 102.598 207.136 101.685 208.13 101.094C209.123 100.502 210.313 100.274 211.474 100.451C212.635 100.628 213.686 101.199 214.429 102.055C215.171 102.911 215.554 103.993 215.503 105.096Z" fill="#FFB7B7"/>
        <path d="M162.877 115.933L154.08 112.197L142.807 112.954C142.807 112.954 129.218 127.868 134.568 142.161L131.275 191.995C152.265 197.403 161.806 187.259 176.958 191.608L172.278 136.224L162.877 115.933Z" fill="#3F3D56"/>
        <path d="M156.997 119.562L162.877 115.933C162.877 115.933 171.045 114.774 174.31 117.748C174.31 117.748 185.392 118.618 188.068 121.215L191.015 121.838L200.805 109.939L206.795 112.995L198.153 135.014L172.278 136.224L156.997 119.562Z" fill="#3F3D56"/>
        <path d="M159.026 108.006C165.756 104.553 168.23 96.6325 164.551 90.3153C160.872 83.998 152.434 81.6763 145.704 85.1297C138.973 88.583 136.5 96.5036 140.179 102.821C143.858 109.138 152.296 111.46 159.026 108.006Z" fill="#FFB7B7"/>
        <path d="M140.353 86.3764C142.832 82.1913 145.93 79.4815 151.03 79.5793C156.13 79.6771 160.542 79.4878 162.837 83.7645C163.443 82.6985 163.747 81.5039 163.719 80.2958C164.412 80.718 164.958 81.3214 165.29 82.0315C165.622 82.7417 165.725 83.5274 165.587 84.292C166.033 84.0466 166.407 83.7 166.673 83.2838C166.94 82.8677 167.091 82.3955 167.113 81.9103C168.815 82.4421 169.258 84.6937 168.396 86.1709C167.535 87.648 165.846 88.5022 164.225 89.2242C162.605 89.9463 163.353 93.7653 162.294 95.125C161.556 96.074 161.218 97.2369 160.72 98.3153C160.7 98.3579 160.664 98.3926 160.62 98.414C159.478 99.0113 158.758 100.078 158.96 101.29C158.984 101.381 158.978 101.477 158.943 101.564C157.499 104.119 155.939 106.792 153.321 108.316C151.22 109.507 148.703 109.872 146.317 109.332C143.64 108.732 141.326 107.066 139.658 105.012C137.989 102.958 136.916 100.53 136.11 98.0599C135.394 95.869 134.874 93.5265 135.441 91.2977C136.008 89.0689 137.93 87.0051 140.364 86.8329" fill="#2F2E41"/>
    </g>
    <defs>
        <clipPath id="clip0">
            <rect width="342" height="282" fill="white"/>
        </clipPath>
    </defs>
</svg>
